<?xml version="1.0" encoding="utf-8"?>
<!-- Generator: Adobe Illustrator 16.0.0, SVG Export Plug-In . SVG Version: 6.00 Build 0)  -->
<!DOCTYPE svg PUBLIC "-//W3C//DTD SVG 1.1//EN" "http://www.w3.org/Graphics/SVG/1.1/DTD/svg11.dtd">
<svg version="1.1" id="Layer_1" xmlns="http://www.w3.org/2000/svg" xmlns:xlink="http://www.w3.org/1999/xlink" x="0px" y="0px"
	 width="289.875px" height="198px" viewBox="0 0 289.875 198" enable-background="new 0 0 289.875 198" xml:space="preserve">
<path fill="#ABC7FE" d="M154.667,166.391l-0.105-0.006c-0.947-3.685-2.834-6.755-5.925-8.42l-1.012-0.551l-0.778,0.846
	c-0.102,0.106-0.777,0.901-0.963,2.817c-1.971-0.604-4.48-0.622-6.463-0.044c-0.145-1.916-0.8-2.722-0.898-2.83l-0.761-0.852
	l-1.029,0.536c-3.139,1.631-5.409,5.526-6.098,9.299c-0.3,1.078-0.478,2.206-0.478,3.38c0,6.964,5.646,12.609,12.609,12.609
	s12.609-5.646,12.609-12.609C155.375,169.104,155.126,167.698,154.667,166.391z"/>
<text transform="matrix(1 0 0 1 0 184.1758)" fill="#ABC7FE" font-family="'Lato-Black'" font-size="220" letter-spacing="-10">5 7</text>
<text transform="matrix(1 0 0 1 5.5 180.5)" fill="none" stroke="#2C75FF" stroke-width="3" stroke-miterlimit="10" font-family="'Lato-Black'" font-size="220" letter-spacing="-10">5 7</text>
<path fill="none" stroke="#2C75FF" stroke-width="3" stroke-miterlimit="10" d="M158.617,166.029l-0.113-0.007
	c-1.014-3.944-3.034-7.231-6.343-9.015l-1.084-0.589l-0.833,0.905c-0.108,0.113-0.832,0.965-1.031,3.016
	c-2.109-0.646-4.797-0.665-6.919-0.047c-0.155-2.051-0.856-2.914-0.962-3.029l-0.814-0.912l-1.103,0.574
	c-3.36,1.746-5.791,5.916-6.528,9.955c-0.321,1.154-0.512,2.362-0.512,3.619c0,7.456,6.044,13.5,13.5,13.5s13.5-6.044,13.5-13.5
	C159.375,168.934,159.108,167.429,158.617,166.029z"/>
</svg>
