<?xml version="1.0" encoding="utf-8"?>
<!-- Generator: Adobe Illustrator 16.0.0, SVG Export Plug-In . SVG Version: 6.00 Build 0)  -->
<!DOCTYPE svg PUBLIC "-//W3C//DTD SVG 1.1//EN" "http://www.w3.org/Graphics/SVG/1.1/DTD/svg11.dtd">
<svg version="1.1" id="Layer_1" xmlns="http://www.w3.org/2000/svg" xmlns:xlink="http://www.w3.org/1999/xlink" x="0px" y="0px"
	 width="810.264px" height="832.21px" viewBox="192.325 0 810.264 832.21" enable-background="new 192.325 0 810.264 832.21"
	 xml:space="preserve">
<path opacity="0.1" fill="#2c75ff" d="M993.143,447.851c-19.122-29.034-60.952-35.231-93.428-13.841l-6.877,4.53
	c0.469-0.518,0.926-1.048,1.361-1.598c-19.051,5.148-44.613-8.135-61.187-33.299c-16.571-25.164-18.682-53.893-6.429-69.363
	c-2.095,0.567-4.111,1.349-6.031,2.361l69.238-45.601c32.478-21.391,43.303-62.266,24.181-91.3
	c-19.123-29.036-60.952-35.232-93.43-13.842l-50.777,33.442c1.241-1.094,2.449-2.214,3.591-3.385
	c-27.015,10.393-58.54,1.038-75.112-24.125c-16.575-25.165-12.718-57.822,7.498-78.536c-4.154,1.597-8.209,3.628-12.08,6.177
	l5.988-3.944c29.036-19.124,37.071-58.162,17.948-87.196s-58.161-37.07-87.195-17.947L249.885,261
	c-29.033,19.122-37.069,58.16-17.946,87.195c19.123,29.036,58.162,37.071,87.195,17.947l348.971-229.838L313.861,369.617
	c29.034-19.122,68.073-11.09,87.195,17.944c19.124,29.037,11.086,68.075-17.945,87.196l3.871-2.549
	c-26.185,22.404-33.715,58.796-16.249,85.319c19.124,29.034,60.951,35.232,93.427,13.84l104.679-68.943
	c19.346-10.283,48.802,3.04,67.188,30.956c17.143,26.025,18.828,55.879,5.135,70.917l-167.079,110.04
	c-32.475,21.39-43.302,62.268-24.178,91.301c19.123,29.034,60.952,35.232,93.426,13.844l425.629-280.328
	C1001.439,517.762,1012.264,476.885,993.143,447.851z"/>
<path opacity="0.1" fill="#2c75ff" d="M289.904,686.896c-29.031,19.121-68.072,11.088-87.195-17.945l0,0
	c-19.123-29.035-11.086-68.073,17.946-87.197l5.007-3.297c29.033-19.122,68.073-11.089,87.195,17.944l0,0
	c19.124,29.038,11.087,68.075-17.946,87.197L289.904,686.896z"/>
<g opacity="0.6">
	<path fill="#2c75ff" d="M606,44.696c-77.404,0-140.396,62.99-140.396,140.395v81.92h-19.298c-26.189,0-47.494,21.305-47.494,47.467
		v226.908c0,26.188,21.305,47.493,47.494,47.493h319.36c26.189,0,47.494-21.305,47.494-47.493V314.477
		c0-26.188-21.305-47.467-47.494-47.467h-19.271v-81.92C746.396,107.686,683.404,44.696,606,44.696z M484.586,185.09
		c0-66.924,54.464-121.413,121.414-121.413S727.414,118.14,727.414,185.09v81.92H484.586V185.09z M765.693,286.018
		c15.708,0,28.486,12.777,28.486,28.485v226.908c0,15.708-12.778,28.485-28.486,28.485H446.307
		c-15.708,0-28.486-12.777-28.486-28.485V314.503c0-15.708,12.778-28.485,28.486-28.485h28.775h261.81H765.693z"/>
	<path fill="#2c75ff" d="M606,334.171c-32.34,0-58.635,26.294-58.635,58.634c0,20.328,10.402,38.782,27.482,49.474v47.995
		c0,17.187,13.966,31.152,31.152,31.152s31.152-13.966,31.152-31.152v-47.995c17.08-10.691,27.482-29.146,27.482-49.474
		C664.635,360.491,638.34,334.171,606,334.171z M623.45,428.207c-3.247,1.611-5.28,4.911-5.28,8.527V490.3
		c0,6.706-5.464,12.171-12.17,12.171c-6.705,0-12.17-5.465-12.17-12.171v-53.565c0-3.616-2.06-6.916-5.28-8.527
		c-13.702-6.758-22.202-20.327-22.202-35.376c0-21.858,17.793-39.652,39.652-39.652s39.652,17.794,39.652,39.652
		C645.652,407.88,637.152,421.449,623.45,428.207z"/>
</g>
</svg>
