<?xml version="1.0" encoding="utf-8"?>
<!-- Generator: Adobe Illustrator 16.0.0, SVG Export Plug-In . SVG Version: 6.00 Build 0)  -->
<!DOCTYPE svg PUBLIC "-//W3C//DTD SVG 1.1//EN" "http://www.w3.org/Graphics/SVG/1.1/DTD/svg11.dtd">
<svg version="1.1" id="Layer_1" xmlns="http://www.w3.org/2000/svg" xmlns:xlink="http://www.w3.org/1999/xlink" x="0px" y="0px"
	 width="826.445px" height="942.5px" viewBox="1347.555 -205 826.445 942.5" enable-background="new 1347.555 -205 826.445 942.5"
	 xml:space="preserve">
<path opacity="0.1" fill="#FFFFFF" d="M2119.143,348.532c-19.122-29.034-60.952-35.231-93.428-13.841l-6.877,4.53
	c0.469-0.518,0.926-1.048,1.361-1.598c-19.051,5.148-44.613-8.135-61.187-33.299c-16.571-25.164-18.682-53.893-6.429-69.363
	c-2.095,0.567-4.111,1.349-6.031,2.361l69.238-45.601c32.478-21.391,43.303-62.266,24.181-91.3
	c-19.123-29.036-60.952-35.232-93.43-13.842l-50.777,33.442c1.241-1.094,2.449-2.214,3.591-3.385
	c-27.015,10.393-58.54,1.038-75.112-24.125c-16.575-25.165-12.718-57.822,7.498-78.536c-4.154,1.597-8.209,3.628-12.08,6.177
	l5.988-3.944c29.036-19.124,37.071-58.162,17.948-87.196s-58.161-37.07-87.195-17.947l-380.518,250.615
	c-29.032,19.122-37.068,58.16-17.945,87.195c19.123,29.036,58.162,37.071,87.195,17.947l348.971-229.838l-354.244,233.313
	c29.033-19.122,68.073-11.09,87.195,17.944c19.123,29.037,11.086,68.075-17.945,87.196l3.871-2.549
	c-26.185,22.404-33.715,58.796-16.248,85.319c19.123,29.034,60.951,35.232,93.427,13.84l104.679-68.943
	c19.347-10.283,48.803,3.04,67.188,30.956c17.143,26.025,18.828,55.879,5.135,70.917l-167.079,110.04
	c-32.475,21.39-43.302,62.268-24.178,91.301c19.123,29.034,60.951,35.232,93.426,13.844l425.629-280.328
	C2127.439,418.444,2138.264,377.567,2119.143,348.532z"/>
<path opacity="0.1" fill="#FFFFFF" d="M1972.203-81.507c-29.031,19.121-68.072,11.088-87.195-17.945l0,0
	c-19.123-29.035-11.086-68.073,17.947-87.197l5.007-3.297c29.032-19.122,68.073-11.089,87.195,17.944l0,0
	c19.124,29.038,11.087,68.075-17.946,87.197L1972.203-81.507z"/>
<path opacity="0.6" fill="none" stroke="#FFFFFF" stroke-width="20" stroke-linecap="round" stroke-linejoin="round" stroke-miterlimit="10" d="
	M1969.157,377.784h-370.378c-24.659,0-45.915-18.11-50.74-43.27l-46.221-196.296c-3.986-20.882,11.377-40.339,31.847-40.339h490.979
	L1969.157,377.784z M2024.67,95.88l12.328-61.908c5.861-41.489,31.733-62.715,61.803-62.715h63.069 M1617.193,456.946
	c25.224,0,45.672,20.448,45.672,45.672s-20.448,45.672-45.672,45.672c-25.225,0-45.672-20.448-45.672-45.672
	S1591.969,456.946,1617.193,456.946z M1887.396,456.946c25.225,0,45.672,20.448,45.672,45.672s-20.447,45.672-45.672,45.672
	c-25.224,0-45.672-20.448-45.672-45.672S1862.173,456.946,1887.396,456.946z M1969.95,373.585l-10.376,40.302
	c-4.989,25.054-26.954,43.059-52.483,43.059h-289.897"/>
</svg>
