<?xml version="1.0" encoding="utf-8"?>
<!-- Generator: Adobe Illustrator 16.0.0, SVG Export Plug-In . SVG Version: 6.00 Build 0)  -->
<!DOCTYPE svg PUBLIC "-//W3C//DTD SVG 1.1//EN" "http://www.w3.org/Graphics/SVG/1.1/DTD/svg11.dtd">
<svg version="1.1" id="Layer_1" xmlns="http://www.w3.org/2000/svg" xmlns:xlink="http://www.w3.org/1999/xlink" x="0px" y="0px"
	 width="788.358px" height="842.566px" viewBox="2591.546 729.886 788.358 842.566"
	 enable-background="new 2591.546 729.886 788.358 842.566" xml:space="preserve">
<path opacity="0.1" fill="#FFFFFF" d="M2600.992,1114.245c19.121,29.034,60.951,35.231,93.428,13.841l6.877-4.53
	c-0.469,0.518-0.926,1.048-1.361,1.598c19.051-5.148,44.613,8.135,61.186,33.299s18.682,53.893,6.43,69.363
	c2.094-0.566,4.111-1.35,6.031-2.361l-69.238,45.602c-32.479,21.391-43.303,62.266-24.182,91.3
	c19.123,29.036,60.953,35.231,93.43,13.843l50.777-33.443c-1.24,1.095-2.449,2.215-3.59,3.385
	c27.014-10.393,58.539-1.037,75.111,24.125c16.576,25.164,12.719,57.822-7.498,78.536c4.154-1.597,8.209-3.628,12.08-6.177
	l-5.988,3.943c-29.035,19.124-37.07,58.162-17.947,87.196s58.16,37.069,87.195,17.947l380.518-250.615
	c29.031-19.122,37.068-58.16,17.945-87.194c-19.123-29.036-58.162-37.071-87.195-17.947l-348.971,229.838l354.244-233.313
	c-29.033,19.121-68.074,11.09-87.195-17.945c-19.123-29.036-11.086-68.074,17.945-87.195l-3.871,2.549
	c26.184-22.404,33.715-58.796,16.248-85.319c-19.123-29.034-60.951-35.232-93.428-13.84l-104.678,68.943
	c-19.348,10.283-48.803-3.04-67.189-30.956c-17.143-26.025-18.828-55.879-5.135-70.917l167.08-110.04
	c32.475-21.39,43.301-62.268,24.178-91.301c-19.123-29.034-60.951-35.232-93.426-13.844l-425.629,280.328
	C2592.695,1044.334,2581.871,1085.211,2600.992,1114.245z"/>
<path opacity="0.1" fill="#FFFFFF" d="M3339.24,990.955c-29.031,19.121-68.072,11.088-87.195-17.945l0,0
	c-19.123-29.035-11.086-68.073,17.947-87.197l5.007-3.297c29.032-19.122,68.073-11.089,87.195,17.944l0,0
	c19.124,29.038,11.087,68.075-17.946,87.197L3339.24,990.955z"/>
<g opacity="0.6">
	<path fill="#FFFFFF" d="M3198.766,1184.336c0,119.895-97.553,216.703-216.702,216.703c-119.895,0-216.703-97.553-216.703-216.703
		c0-119.148,97.554-216.703,216.703-216.703c4.467,0,8.19,0,12.658,0.745l-59.574,47.66l14.149,17.127l81.171-65.532l-65.533-87.873
		l-17.871,13.405l39.467,52.128c-1.488,0-2.979,0-4.467,0c-131.81,0-239.044,107.234-239.044,239.043
		s107.234,239.043,239.044,239.043c131.809,0,239.043-107.234,239.043-239.043v-11.17h-22.341V1184.336z"/>
	<circle fill="#FFFFFF" cx="2979.829" cy="1185.825" r="23.085"/>
</g>
</svg>
