<?xml version="1.0" encoding="utf-8"?>
<!-- Generator: Adobe Illustrator 16.0.0, SVG Export Plug-In . SVG Version: 6.00 Build 0)  -->
<!DOCTYPE svg PUBLIC "-//W3C//DTD SVG 1.1//EN" "http://www.w3.org/Graphics/SVG/1.1/DTD/svg11.dtd">
<svg version="1.1" id="Layer_1" xmlns="http://www.w3.org/2000/svg" xmlns:xlink="http://www.w3.org/1999/xlink" x="0px" y="0px"
	 width="781.034px" height="832.21px" viewBox="1609.938 -102.499 781.034 832.21"
	 enable-background="new 1609.938 -102.499 781.034 832.21" xml:space="preserve">
<g opacity="0.6">
	<g>
		
			<line fill="none" stroke="#FFFFFF" stroke-width="20" stroke-linecap="round" stroke-miterlimit="10" x1="1934.696" y1="170.787" x2="1922.223" y2="183.329"/>
		<path fill="none" stroke="#FFFFFF" stroke-width="20" stroke-linecap="round" stroke-linejoin="round" stroke-miterlimit="10" d="
			M1870.926,234.592c-41.949,17.032-91.853,8.553-125.882-25.477c-31.969-31.967-41.385-77.932-28.25-118.149"/>
		<path fill="none" stroke="#FFFFFF" stroke-width="20" stroke-linecap="round" stroke-linejoin="round" stroke-miterlimit="10" d="
			M1791.049,16.711c40.184-13.17,86.184-3.711,118.15,28.255c33.996,33.995,42.508,83.858,25.476,125.808"/>
		<path fill="none" stroke="#FFFFFF" stroke-width="20" stroke-linecap="round" stroke-linejoin="round" stroke-miterlimit="10" d="
			M1791.049,16.711l49.152,49.151c13.734,13.734,13.734,35.947,0.034,49.64l-24.647,24.649
			c-13.693,13.693-35.907,13.693-49.643-0.035l-49.151-49.151"/>
		<path fill="none" stroke="#FFFFFF" stroke-width="20" stroke-linecap="round" stroke-linejoin="round" stroke-miterlimit="10" d="
			M2057.585,293.725c83.747,83.815,188.536,188.604,240.273,240.342c8.83,8.83,13.176,20.351,13.176,31.939
			c0,11.521-4.346,23.042-13.176,31.872c-17.66,17.591-46.219,17.591-63.81,0L2014.47,378.161"/>
		<path fill="none" stroke="#FFFFFF" stroke-width="20" stroke-linecap="round" stroke-linejoin="round" stroke-miterlimit="10" d="
			M2028.336,264.476c-52.566-52.567-91.405-91.406-93.612-93.613c-0.069-0.069-0.069-0.069-0.069-0.069"/>
		
			<line fill="none" stroke="#FFFFFF" stroke-width="20" stroke-linecap="round" stroke-linejoin="round" stroke-miterlimit="10" x1="1943.897" y1="307.591" x2="1870.913" y2="234.605"/>
	</g>
	<path fill="none" stroke="#FFFFFF" stroke-width="20" stroke-linecap="round" stroke-linejoin="round" stroke-miterlimit="10" d="
		M1784.881,606.466l-69.286-69.288c-10.328-10.327-10.328-27.068,0-37.396l183.318-183.318c10.328-10.328,27.07-10.328,37.396,0
		l69.288,69.288c10.328,10.326,10.328,27.068,0,37.396l-183.318,183.318C1811.951,616.794,1795.209,616.794,1784.881,606.466z"/>
	<path fill="none" stroke="#FFFFFF" stroke-width="20" stroke-linecap="round" stroke-linejoin="round" stroke-miterlimit="10" d="
		M2006.227,386.378l-70.544-70.544l22.047-22.048c7.63-7.629,20.006-7.629,27.643,0l42.908,42.909c7.63,7.63,7.63,20.006,0,27.642
		L2006.227,386.378z"/>
	
		<polyline fill="none" stroke="#FFFFFF" stroke-width="20" stroke-linecap="round" stroke-linejoin="round" stroke-miterlimit="10" points="
		2222.83,128.445 2021.416,329.865 1992.195,300.644 2193.615,99.23 	"/>
	
		<polyline fill="none" stroke="#FFFFFF" stroke-width="20" stroke-linecap="round" stroke-linejoin="round" stroke-miterlimit="10" points="
		2222.83,128.445 2260.656,131.093 2311.104,40.172 2281.889,10.957 2190.966,61.405 2193.615,99.23 	"/>
	<circle fill="#FFFFFF" cx="2265.953" cy="565.972" r="16.66"/>
</g>
<path opacity="0.1" fill="#FFFFFF" d="M1619.385,281.861c19.121,29.034,60.951,35.231,93.428,13.841l6.877-4.53
	c-0.469,0.518-0.926,1.048-1.361,1.598c19.051-5.148,44.613,8.135,61.186,33.299s18.682,53.893,6.43,69.363
	c2.094-0.566,4.111-1.35,6.031-2.361l-69.238,45.602c-32.479,21.391-43.303,62.266-24.182,91.3
	c19.123,29.036,60.953,35.231,93.43,13.843l50.777-33.443c-1.24,1.095-2.449,2.215-3.59,3.385
	c27.014-10.393,58.539-1.037,75.111,24.125c16.576,25.164,12.719,57.822-7.498,78.536c4.154-1.597,8.209-3.628,12.08-6.177
	l-5.988,3.943c-29.035,19.124-37.07,58.162-17.947,87.196s58.16,37.069,87.195,17.947l380.518-250.615
	c29.031-19.122,37.068-58.16,17.945-87.194c-19.123-29.036-58.162-37.071-87.195-17.947l-348.971,229.838l354.244-233.313
	c-29.033,19.121-68.074,11.09-87.195-17.945c-19.123-29.036-11.086-68.074,17.945-87.195l-3.871,2.549
	c26.184-22.404,33.715-58.796,16.248-85.319c-19.123-29.034-60.951-35.232-93.428-13.84l-104.678,68.943
	c-19.348,10.283-48.803-3.04-67.189-30.956c-17.143-26.025-18.828-55.879-5.135-70.917l167.08-110.04
	c32.475-21.39,43.301-62.268,24.178-91.301c-19.123-29.034-60.951-35.232-93.426-13.844l-425.629,280.328
	C1611.088,211.949,1600.264,252.826,1619.385,281.861z"/>
</svg>
