<?xml version="1.0" encoding="utf-8"?>
<!-- Generator: Adobe Illustrator 16.0.0, SVG Export Plug-In . SVG Version: 6.00 Build 0)  -->
<!DOCTYPE svg PUBLIC "-//W3C//DTD SVG 1.1//EN" "http://www.w3.org/Graphics/SVG/1.1/DTD/svg11.dtd">
<svg version="1.1" id="Layer_1" xmlns="http://www.w3.org/2000/svg" xmlns:xlink="http://www.w3.org/1999/xlink" x="0px" y="0px"
	 width="123px" height="115.286px" viewBox="200.5 -28.453 123 115.286" enable-background="new 200.5 -28.453 123 115.286"
	 xml:space="preserve">
<path opacity="0.2" fill="#324FA0" d="M208.154,53.752c3.977-2.617,9.322-1.518,11.94,2.458l0,0
	c2.618,3.975,1.518,9.321-2.457,11.939l-0.686,0.451c-3.976,2.619-9.322,1.519-11.939-2.456l0,0
	c-2.619-3.978-1.519-9.322,2.456-11.939L208.154,53.752z"/>
<path opacity="0.2" fill="#324FA0" d="M318.207,32.87c-2.619-3.976-8.348-4.824-12.793-1.895l-0.943,0.619
	c0.064-0.07,0.127-0.143,0.188-0.218c-2.609,0.705-6.109-1.114-8.379-4.56c-2.27-3.446-2.559-7.38-0.881-9.497
	c-0.285,0.077-0.563,0.184-0.824,0.322l9.48-6.243c4.447-2.93,5.93-8.527,3.311-12.502c-2.617-3.977-8.346-4.824-12.793-1.896
	l-6.953,4.58c0.169-0.149,0.336-0.304,0.491-0.463c-3.698,1.423-8.015,0.142-10.284-3.305c-2.271-3.445-1.742-7.917,1.026-10.753
	c-0.569,0.218-1.125,0.496-1.654,0.846l0.819-0.54c3.977-2.619,5.077-7.964,2.458-11.94c-2.619-3.976-7.964-5.075-11.939-2.457
	L216.432,7.285c-3.975,2.619-5.075,7.964-2.456,11.939c2.617,3.977,7.964,5.076,11.938,2.458l47.785-31.472l-48.507,31.947
	c3.976-2.619,9.322-1.52,11.939,2.457c2.619,3.976,1.519,9.321-2.458,11.939l0.531-0.35c-3.586,3.069-4.616,8.052-2.225,11.684
	c2.618,3.976,8.346,4.824,12.793,1.895l14.333-9.44c2.648-1.408,6.683,0.417,9.2,4.238c2.347,3.564,2.577,7.652,0.703,9.712
	L247.132,69.36c-4.447,2.929-5.93,8.526-3.311,12.502c2.618,3.975,8.345,4.824,12.793,1.895l58.28-38.384
	C319.342,42.443,320.824,36.846,318.207,32.87z"/>
<path fill="none" stroke="#FFFFFF" stroke-width="3" stroke-miterlimit="10" d="M290.021,72.293v-5.611
	c0-2.066-1.673-3.741-3.741-3.741h-37.413c-2.066,0-3.741,1.675-3.741,3.741v5.611H290.021z"/>
<rect x="260.09" y="54.587" fill="none" stroke="#FFFFFF" stroke-width="3" stroke-miterlimit="10" width="14.967" height="8.354"/>
<g>
	<path fill="none" stroke="#FFFFFF" stroke-width="3" stroke-miterlimit="10" d="M317.902,66.894l-5.722-8.236l5.232-3.637
		c0.409-0.283-0.23-1.2-0.92-1.324l-19.461-13.042c-0.689-0.124-1.324,0.371-1.45,1.062l5.394,22.726
		c-0.125,0.69,0.527,1.634,0.935,1.35l4.779-3.319l5.722,8.236c0.702,1.012,1.991,1.33,2.598,0.91l3.294-2.291
		C318.91,68.906,318.604,67.903,317.902,66.894z"/>
</g>
<path fill="none" stroke="#FFFFFF" stroke-width="3" stroke-miterlimit="10" d="M309.035,38.621V-3.597
	c0-2.178-2.59-4.55-5.031-4.55h-72.865c-2.438,0-4.414,2.372-4.414,4.55v53.239c0,2.179,1.976,3.944,4.414,3.944h61.061"/>
<path fill-rule="evenodd" clip-rule="evenodd" fill="none" stroke="#FFFFFF" stroke-width="3" stroke-miterlimit="10" d="
	M286.623,23.402c-0.711-6.855-4.189-12.475-9.54-15.417l-1.63-0.896l-1.225,1.4c-0.155,0.178-1.214,1.498-1.48,4.661
	c-3.146-0.975-7.141-0.975-10.286,0c-0.267-3.163-1.325-4.483-1.48-4.661l-1.226-1.4l-1.63,0.896
	c-5.352,2.941-8.83,8.561-9.54,15.417c-0.451,4.329,0.884,8.468,3.756,11.654c7.745,8.592,22.779,8.592,30.524,0
	C285.74,31.87,287.074,27.731,286.623,23.402L286.623,23.402z"/>
</svg>
