<?xml version="1.0" encoding="utf-8"?>
<!-- Generator: Adobe Illustrator 16.0.0, SVG Export Plug-In . SVG Version: 6.00 Build 0)  -->
<!DOCTYPE svg PUBLIC "-//W3C//DTD SVG 1.1//EN" "http://www.w3.org/Graphics/SVG/1.1/DTD/svg11.dtd">
<svg version="1.1" id="Ebene_1" xmlns="http://www.w3.org/2000/svg" xmlns:xlink="http://www.w3.org/1999/xlink" x="0px" y="0px"
	 width="800px" height="800px" viewBox="0 0 800 800" enable-background="new 0 0 800 800" xml:space="preserve">
<g>
	<polygon opacity="0.4" fill="#1F1D1D" points="-50.877,468.531 -25.422,544.899 -101.789,519.443 	"/>
	<path fill="#1F1D1D" d="M-103.247,498.019l62.353-62.353l31.176,93.529L-103.247,498.019z M-45.264,454.178l-39.471,39.471
		l59.206,19.735L-45.264,454.178z"/>
	<polygon opacity="0.4" fill="#1F1D1D" points="133.622,401.887 133.621,427.029 158.763,427.029 158.763,452.171 178.904,452.171 
		178.905,462.17 148.762,462.171 148.763,437.029 123.621,437.029 123.622,411.888 98.479,411.889 98.48,381.746 108.48,381.746 
		108.48,401.888 	"/>
	<polygon fill="#1F1D1D" points="102.445,359.711 102.445,384.853 127.587,384.853 127.586,409.994 147.728,409.994 
		147.729,419.994 117.586,419.994 117.586,394.853 92.444,394.853 92.445,369.711 67.303,369.712 67.304,339.569 77.304,339.57 
		77.304,359.711 	"/>
	<circle opacity="0.4" fill="#1F1D1D" cx="2.714" cy="84.694" r="50"/>
	<path fill="#1F1D1D" d="M38.48,44.614c30.327,0,55,24.673,55,55s-24.673,55-55,55s-55-24.673-55-55S8.153,44.614,38.48,44.614z
		 M38.48,144.614c24.813,0,45-20.187,45-45s-20.187-45-45-45s-45,20.187-45,45S13.667,144.614,38.48,144.614z"/>
	<rect x="-39.159" y="647.316" opacity="0.4" fill="#1F1D1D" width="100" height="100"/>
	<path fill="#1F1D1D" d="M-70.848,658.85h110v110h-110V658.85z M29.152,668.85h-90v90h90V668.85z"/>
	<polygon opacity="0.4" fill="#1F1D1D" points="1275.883,540.919 1301.339,617.287 1224.971,591.831 	"/>
	<path fill="#1F1D1D" d="M1223.514,570.406l62.353-62.353l31.177,93.529L1223.514,570.406z M1281.496,526.565l-39.471,39.471
		l59.206,19.735L1281.496,526.565z"/>
	<polygon opacity="0.4" fill="#1F1D1D" points="1417.377,453.115 1417.376,478.258 1442.519,478.258 1442.519,503.399 
		1462.659,503.399 1462.66,513.398 1432.518,513.399 1432.519,488.258 1407.376,488.258 1407.377,463.116 1382.234,463.117 
		1382.235,432.975 1392.235,432.975 1392.235,453.116 	"/>
	<polygon fill="#1F1D1D" points="1386.201,410.939 1386.2,436.081 1411.342,436.081 1411.342,461.223 1431.483,461.223 
		1431.484,471.223 1401.342,471.223 1401.342,446.081 1376.2,446.082 1376.2,420.939 1351.059,420.94 1351.06,390.798 
		1361.059,390.798 1361.059,410.939 	"/>
	<circle opacity="0.4" fill="#1F1D1D" cx="1361.852" cy="104.585" r="50"/>
	<path fill="#1F1D1D" d="M1397.617,64.505c30.327,0,55,24.673,55,55s-24.673,55-55,55s-55-24.673-55-55
		S1367.29,64.505,1397.617,64.505z M1397.617,164.505c24.813,0,45-20.187,45-45s-20.188-45-45-45s-45,20.187-45,45
		S1372.805,164.505,1397.617,164.505z"/>
	<rect x="1356.859" y="699.563" opacity="0.4" fill="#1F1D1D" width="100" height="100"/>
	<path fill="#1F1D1D" d="M1325.17,711.096h110v110h-110V711.096z M1425.17,721.096h-90v90h90V721.096z"/>
	
		<rect x="271.685" y="825.356" transform="matrix(-0.7071 0.7071 -0.7071 -0.7071 1120.5187 1196.5817)" opacity="0.4" fill="#1F1D1D" width="81.512" height="10"/>
	
		<rect x="270.334" y="795.04" transform="matrix(-0.7071 0.7071 -0.7071 -0.7071 1096.0604 1146.0769)" opacity="0.4" fill="#1F1D1D" width="80.672" height="10"/>
	
		<rect x="94.469" y="747.527" transform="matrix(-0.7071 0.7071 -0.7071 -0.7071 761.0078 1189.835)" opacity="0.4" fill="#1F1D1D" width="79.227" height="9.999"/>
	
		<rect x="241.658" y="864.706" transform="matrix(-0.7071 0.7071 -0.7071 -0.7071 1097.0874 1284.9799)" fill="#1F1D1D" width="81.513" height="10"/>
	
		<rect x="240.307" y="834.389" transform="matrix(-0.7071 0.7071 -0.7071 -0.7071 1072.6262 1234.4819)" fill="#1F1D1D" width="80.672" height="10"/>
	
		<rect x="64.443" y="786.876" transform="matrix(-0.7071 0.7071 -0.7071 -0.7071 737.5801 1278.2324)" fill="#1F1D1D" width="79.227" height="10"/>
	<circle opacity="0.4" fill="#1F1D1D" cx="457.294" cy="785.022" r="50"/>
	<path fill="#1F1D1D" d="M437.929,738.761c21.444-21.444,56.337-21.444,77.782,0c21.444,21.444,21.444,56.337,0,77.782
		c-21.445,21.444-56.338,21.444-77.782,0C416.484,795.098,416.484,760.205,437.929,738.761z M508.64,809.472
		c17.546-17.546,17.546-46.095,0-63.64c-17.546-17.546-46.095-17.546-63.64,0c-17.545,17.545-17.545,46.094,0,63.64
		C462.545,827.017,491.094,827.017,508.64,809.472z"/>
	<polygon opacity="0.4" fill="#1F1D1D" points="1114.002,833.837 1114.001,858.979 1139.143,858.979 1139.143,884.121 
		1159.284,884.121 1159.284,894.12 1129.143,894.121 1129.143,868.979 1104,868.979 1104.001,843.838 1078.859,843.838 
		1078.859,813.695 1088.859,813.696 1088.859,833.838 	"/>
	<polygon fill="#1F1D1D" points="1124.143,909.057 1124.143,883.915 1099.001,883.915 1099.001,858.773 1078.859,858.773 
		1078.859,848.773 1109.002,848.773 1109.001,873.915 1134.144,873.915 1134.143,899.057 1159.284,899.056 1159.284,929.198 
		1149.284,929.198 1149.284,909.057 	"/>
	<polygon opacity="0.4" fill="#1F1D1D" points="874.655,794.187 798.288,819.643 823.743,743.274 	"/>
	<path fill="#1F1D1D" d="M829.464,759.581l62.353,62.352l-93.528,31.177L829.464,759.581z M873.305,817.563l-39.471-39.471
		l-19.735,59.206L873.305,817.563z"/>
	<polygon opacity="0.4" fill="#1F1D1D" points="962,-45.734 961.999,-20.592 987.141,-20.593 987.141,4.549 1007.282,4.549 
		1007.282,14.549 977.141,14.55 977.141,-10.592 951.998,-10.592 951.999,-35.733 926.857,-35.733 926.857,-65.876 936.857,-65.875 
		936.857,-45.733 	"/>
	<polygon fill="#1F1D1D" points="972.141,29.485 972.141,4.344 946.999,4.344 946.999,-20.798 926.857,-20.798 926.857,-30.797 
		957,-30.798 956.999,-5.656 982.142,-5.656 982.141,19.485 1007.282,19.485 1007.282,49.627 997.282,49.626 997.282,29.485 	"/>
	<circle opacity="0.4" fill="#1F1D1D" cx="1105.358" cy="524.507" r="50"/>
	<path fill="#1F1D1D" d="M1048.179,582.09c-21.444-21.444-21.444-56.338,0-77.782c21.445-21.444,56.338-21.444,77.782,0
		s21.444,56.338,0,77.782S1069.624,603.534,1048.179,582.09z M1118.89,511.379c-17.545-17.546-46.094-17.546-63.64,0
		c-17.545,17.546-17.545,46.094,0,63.64c17.546,17.546,46.095,17.546,63.64,0C1136.436,557.473,1136.436,528.925,1118.89,511.379z"
		/>
	<polygon opacity="0.4" fill="#1F1D1D" points="280.529,104.853 204.162,130.309 229.618,53.941 	"/>
	<path fill="#1F1D1D" d="M234.338,73.247l62.353,62.353l-93.529,31.177L234.338,73.247z M278.179,131.229l-39.471-39.471
		l-19.735,59.206L278.179,131.229z"/>
	<polygon opacity="0.4" fill="#1F1D1D" points="352.653,635.376 370.431,653.154 388.208,635.376 405.986,653.154 420.229,638.912 
		427.299,645.982 405.986,667.297 388.208,649.519 370.431,667.297 352.653,649.519 334.875,667.297 313.562,645.982 
		320.633,638.912 334.875,653.154 	"/>
	<polygon fill="#1F1D1D" points="307.563,636.376 325.341,654.154 343.119,636.376 360.896,654.154 375.139,639.912 382.21,646.982 
		360.896,668.297 343.119,650.519 325.341,668.297 307.563,650.519 289.786,668.297 268.472,646.982 275.543,639.912 
		289.786,654.154 	"/>
	<rect x="880.802" y="642.042" opacity="0.4" fill="#1F1D1D" width="81.513" height="10"/>
	<rect x="861.037" y="664.73" opacity="0.4" fill="#1F1D1D" width="80.673" height="10"/>
	<rect x="893.811" y="687.42" opacity="0.4" fill="#1F1D1D" width="79.227" height="10"/>
	<rect x="897.508" y="658.139" fill="#1F1D1D" width="81.513" height="10"/>
	<rect x="877.743" y="680.827" fill="#1F1D1D" width="80.673" height="10"/>
	<rect x="910.516" y="703.517" fill="#1F1D1D" width="79.228" height="10"/>
	<rect x="165.629" y="209.881" opacity="0.4" fill="#1F1D1D" width="100" height="100"/>
	<path fill="#1F1D1D" d="M182.046,224.032h110v110h-110V224.032z M282.046,234.032h-90v90h90V234.032z"/>
	<polygon opacity="0.4" fill="#1F1D1D" points="1037.7,154.591 1063.155,230.959 986.788,205.503 	"/>
	<path fill="#1F1D1D" d="M985.331,179.971l62.353-62.353l31.176,93.529L985.331,179.971z M1043.313,136.131l-39.471,39.471
		l59.206,19.735L1043.313,136.131z"/>
	<rect x="1214.736" y="231.322" opacity="0.4" fill="#1F1D1D" width="81.514" height="10"/>
	<rect x="1194.973" y="254.011" opacity="0.4" fill="#1F1D1D" width="80.672" height="10"/>
	<rect x="1227.745" y="276.7" opacity="0.4" fill="#1F1D1D" width="79.228" height="10"/>
	<rect x="1231.442" y="247.418" fill="#1F1D1D" width="81.513" height="10"/>
	<rect x="1211.678" y="270.107" fill="#1F1D1D" width="80.673" height="10"/>
	<rect x="1244.451" y="292.796" fill="#1F1D1D" width="79.227" height="10"/>
	<rect x="-97.239" y="253.093" opacity="0.4" fill="#1F1D1D" width="81.513" height="10"/>
	<rect x="-117.003" y="275.782" opacity="0.4" fill="#1F1D1D" width="80.672" height="10"/>
	<rect x="-84.23" y="298.471" opacity="0.4" fill="#1F1D1D" width="79.227" height="10"/>
	<rect x="-80.533" y="269.189" fill="#1F1D1D" width="81.513" height="10"/>
	<rect x="-100.298" y="291.878" fill="#1F1D1D" width="80.672" height="10"/>
	<rect x="-67.525" y="314.567" fill="#1F1D1D" width="79.227" height="10"/>
	<polygon fill="#1F1D1D" points="798.455,274.894 798.454,300.036 823.596,300.035 823.596,325.177 843.737,325.177 
		843.738,335.177 813.596,335.178 813.596,310.036 788.454,310.036 788.454,284.895 763.313,284.895 763.313,254.752 
		773.313,254.753 773.313,274.895 	"/>
	<polygon fill="#1F1D1D" points="804.596,349.114 804.596,323.972 779.454,323.972 779.455,298.83 759.313,298.83 759.313,288.831 
		789.455,288.83 789.454,313.972 814.597,313.972 814.596,339.113 839.738,339.113 839.737,369.255 829.737,369.255 
		829.737,349.113 	"/>
	<rect x="602.271" y="574.882" opacity="0.4" fill="#1F1D1D" width="100" height="100"/>
	<path fill="#1F1D1D" d="M570.581,583.415h110v110h-110V583.415z M670.581,593.415h-90v90h90V593.415z"/>
	<rect x="668.876" y="61.686" opacity="0.4" fill="#1F1D1D" width="100" height="100"/>
	<path fill="#1F1D1D" d="M635.664,76.891h110v110h-110V76.891z M735.664,86.891h-90v90h90V86.891z"/>
	<polygon fill="#1F1D1D" points="479.76,171.208 461.982,188.985 479.76,206.763 461.982,224.541 476.225,238.783 469.154,245.854 
		447.84,224.541 465.617,206.763 447.84,188.985 465.617,171.208 447.84,153.43 469.154,132.117 476.225,139.188 461.982,153.43 	
		"/>
	<polygon opacity="0.4" fill="#1F1D1D" points="487.538,119.34 469.76,137.118 487.538,154.896 469.76,172.673 484.002,186.916 
		476.932,193.987 455.617,172.673 473.396,154.896 455.617,137.118 473.396,119.34 455.617,101.563 476.932,80.249 484.002,87.32 
		469.76,101.563 	"/>
	<rect x="123.104" y="577.671" opacity="0.4" fill="#1F1D1D" width="10" height="81.513"/>
	<rect x="145.793" y="598.275" opacity="0.4" fill="#1F1D1D" width="10" height="80.673"/>
	
		<rect x="255.53" y="466.686" transform="matrix(0.7081 -0.7061 0.7061 0.7081 -246.9036 346.0576)" opacity="0.4" fill="#1F1D1D" width="79.226" height="10"/>
	<rect x="116.512" y="528.614" fill="#1F1D1D" width="10" height="81.513"/>
	<rect x="139.201" y="549.22" fill="#1F1D1D" width="10" height="80.672"/>
	
		<rect x="285.614" y="427.38" transform="matrix(0.7081 -0.7061 0.7061 0.7081 -210.3707 355.8276)" fill="#1F1D1D" width="79.228" height="10"/>
	<polygon opacity="0.4" fill="#1F1D1D" points="761.342,477.555 837.709,452.099 812.253,528.467 	"/>
	<path fill="#1F1D1D" d="M790.828,529.924l-62.353-62.353l93.529-31.177L790.828,529.924z M746.987,471.941l39.472,39.471
		l19.734-59.206L746.987,471.941z"/>
	<polygon opacity="0.4" fill="#1F1D1D" points="458.48,502.1 433.34,502.1 433.34,527.241 408.197,527.241 408.197,547.383 
		398.198,547.383 398.197,517.24 423.34,517.241 423.339,492.099 448.48,492.1 448.48,466.958 478.623,466.958 478.622,476.958 
		458.48,476.958 	"/>
	<polygon fill="#1F1D1D" points="384.684,508.962 409.825,508.963 409.824,483.821 434.967,483.821 434.967,463.68 444.967,463.679 
		444.967,493.821 419.825,493.821 419.825,518.963 394.684,518.963 394.684,544.104 364.542,544.104 364.542,534.104 
		384.684,534.104 	"/>
	<circle opacity="0.4" fill="#1F1D1D" cx="549.629" cy="381.622" r="50"/>
	<path fill="#1F1D1D" d="M609.472,428.076c-21.444,21.444-56.337,21.444-77.782,0c-21.443-21.444-21.443-56.337,0-77.782
		c21.445-21.444,56.338-21.444,77.782,0S630.916,406.632,609.472,428.076z M538.762,357.366c-17.546,17.545-17.546,46.094,0,63.639
		c17.545,17.546,46.094,17.546,63.639,0c17.546-17.545,17.546-46.094,0-63.639C584.855,339.82,556.307,339.82,538.762,357.366z"/>
	<rect x="951.402" y="342.858" fill="#1F1D1D" width="10" height="81.513"/>
	<rect x="974.091" y="363.463" fill="#1F1D1D" width="10" height="80.672"/>
	<rect x="996.78" y="332.135" fill="#1F1D1D" width="10" height="79.228"/>
	<rect x="967.499" y="326.152" fill="#1F1D1D" width="10" height="81.512"/>
	<rect x="990.188" y="346.757" fill="#1F1D1D" width="10" height="80.673"/>
	<rect x="1012.877" y="315.429" fill="#1F1D1D" width="10" height="79.227"/>
</g>
</svg>
