<?xml version="1.0" encoding="utf-8"?>
<!-- Generator: Adobe Illustrator 16.0.0, SVG Export Plug-In . SVG Version: 6.00 Build 0)  -->
<!DOCTYPE svg PUBLIC "-//W3C//DTD SVG 1.1//EN" "http://www.w3.org/Graphics/SVG/1.1/DTD/svg11.dtd">
<svg version="1.1" id="Layer_1" xmlns="http://www.w3.org/2000/svg" xmlns:xlink="http://www.w3.org/1999/xlink" x="0px" y="0px"
	 width="373.568px" height="257px" viewBox="1232.455 786.5 373.568 257" enable-background="new 1232.455 786.5 373.568 257"
	 xml:space="preserve">
<path fill="#FFFFFF" d="M1350.659,996.058c-1.692-3.915-4.128-7.654-7.486-11.116c-1.299-1.338-1.603-2.845-1.266-4.211h-45.269
	c-9.908,0-17.941,8.219-17.941,18.357s8.033,18.356,17.941,18.356h50.651C1347.718,1010.24,1348.818,1003.082,1350.659,996.058z"/>
<path fill="#FFFFFF" d="M1498.532,885.461c1.691,3.915,4.128,7.654,7.486,11.116c1.299,1.338,1.602,2.845,1.265,4.211h45.269
	c9.908,0,17.942-8.219,17.942-18.357s-8.034-18.356-17.942-18.356H1501.9C1501.473,871.28,1500.373,878.437,1498.532,885.461z"/>
<path fill="#FFFFFF" d="M1534.062,918.031c1.692,3.915,4.128,7.654,7.487,11.116c1.299,1.338,1.602,2.845,1.265,4.211h45.269
	c9.908,0,17.941-8.219,17.941-18.357s-8.033-18.357-17.941-18.357h-50.651C1537.003,903.849,1535.903,911.005,1534.062,918.031z"/>
<path fill="#FFFFFF" d="M1269.169,999.088c0,10.139-8.22,18.356-18.356,18.356l0,0c-10.139,0-18.357-8.218-18.357-18.356l0,0
	c0-10.139,8.219-18.357,18.357-18.357l0,0C1260.949,980.731,1269.169,988.949,1269.169,999.088L1269.169,999.088z"/>
<path fill="#FFFFFF" d="M1417.856,786.5c-70.969,0-128.5,57.531-128.5,128.5s57.531,128.5,128.5,128.5
	c70.968,0,128.5-57.531,128.5-128.5S1488.824,786.5,1417.856,786.5z M1425.663,962.975c0,0.953-0.546,1.499-1.499,1.499h-12.13
	c-0.954,0-1.498-0.546-1.498-1.499v-63.782c0-3.679,0.407-7.359,0.681-9.403c0.138-1.091-0.273-1.499-1.09-1.499
	c-0.274,0-0.547,0.136-0.818,0.136c-0.682,0.272-1.091,0.546-1.636,0.818l-8.994,3.951c-0.818,0.409-1.499,0.138-1.909-0.816
	l-3.951-10.087c-0.409-0.815-0.137-1.499,0.816-1.906l28.348-12.129c0.818-0.273,1.364-0.138,2.045,0.272l0.816,0.681
	c0.548,0.409,0.819,0.954,0.819,1.771V962.975z"/>
</svg>
