<?xml version="1.0" encoding="utf-8"?>
<!-- Generator: Adobe Illustrator 16.0.0, SVG Export Plug-In . SVG Version: 6.00 Build 0)  -->
<!DOCTYPE svg PUBLIC "-//W3C//DTD SVG 1.1//EN" "http://www.w3.org/Graphics/SVG/1.1/DTD/svg11.dtd">
<svg version="1.1" id="Layer_1" xmlns="http://www.w3.org/2000/svg" xmlns:xlink="http://www.w3.org/1999/xlink" x="0px" y="0px"
	 width="373.658px" height="261px" viewBox="1692 782.5 373.658 261" enable-background="new 1692 782.5 373.658 261"
	 xml:space="preserve">
<path fill="#FFFFFF" d="M1947.454,977.7c1.692-3.915,4.128-7.654,7.486-11.116c1.299-1.338,1.603-2.845,1.266-4.211h45.269
	c9.908,0,17.941,8.219,17.941,18.357s-8.033,18.356-17.941,18.356h-50.651C1950.396,991.882,1949.295,984.725,1947.454,977.7z"/>
<path fill="#FFFFFF" d="M1804.189,845.461c-1.691,3.915-4.128,7.654-7.486,11.116c-1.299,1.338-1.602,2.845-1.265,4.211h-45.269
	c-9.908,0-17.942-8.219-17.942-18.357s8.034-18.356,17.942-18.356h50.651C1801.249,831.28,1802.349,838.437,1804.189,845.461z"/>
<path fill="#FFFFFF" d="M1768.66,878.031c-1.692,3.915-4.128,7.654-7.487,11.116c-1.299,1.338-1.602,2.845-1.265,4.211h-45.269
	c-9.908,0-17.941-8.219-17.941-18.357s8.033-18.357,17.941-18.357h50.651C1765.719,863.849,1766.818,871.005,1768.66,878.031z"/>
<path fill="#FFFFFF" d="M2028.944,980.731c0,10.139,8.22,18.356,18.356,18.356l0,0c10.139,0,18.357-8.218,18.357-18.356l0,0
	c0-10.139-8.219-18.357-18.357-18.357l0,0C2037.164,962.373,2028.944,970.592,2028.944,980.731L2028.944,980.731z"/>
<path fill="#FFFFFF" d="M1865.856,786.5c-70.969,0-128.5,57.531-128.5,128.5s57.531,128.5,128.5,128.5
	c70.968,0,128.5-57.531,128.5-128.5S1936.824,786.5,1865.856,786.5z M1899.13,949.523c0.979,0,1.54,0.56,1.54,1.541v10.786
	c0,0.979-0.561,1.541-1.54,1.541h-59.815c-0.979,0-1.541-0.562-1.541-1.541v-6.724c0-17.09,5.604-29.417,18.211-37.682
	l22.132-14.707c5.603-3.782,8.125-7.425,8.125-11.768c0-7.845-6.165-12.887-16.248-12.887c-6.304,0-12.329,1.121-17.651,2.942
	l-8.125,2.661c-0.84,0.278-1.541-0.142-1.819-0.981l-3.503-10.506c-0.42-0.84,0-1.54,0.98-1.821l7.845-2.661
	c7.425-2.241,14.568-3.643,22.273-3.643c19.891,0,32.076,9.946,32.076,26.896c0,9.385-5.181,16.528-16.248,23.813l-22.273,14.988
	c-6.862,4.622-9.944,11.907-9.944,19.751H1899.13z"/>
</svg>
