<?xml version="1.0" encoding="utf-8"?>
<!-- Generator: Adobe Illustrator 16.0.0, SVG Export Plug-In . SVG Version: 6.00 Build 0)  -->
<!DOCTYPE svg PUBLIC "-//W3C//DTD SVG 1.1//EN" "http://www.w3.org/Graphics/SVG/1.1/DTD/svg11.dtd">
<svg version="1.1" id="Layer_1" xmlns="http://www.w3.org/2000/svg" xmlns:xlink="http://www.w3.org/1999/xlink" x="0px" y="0px"
	 width="378.856px" height="262.5px" viewBox="2222 1114 378.856 262.5" enable-background="new 2222 1114 378.856 262.5"
	 xml:space="preserve">
<path fill="#FFFFFF" d="M2482.716,1277.876c1.691,3.915,4.128,7.654,7.486,11.116c1.299,1.338,1.602,2.845,1.265,4.211h45.269
	c9.908,0,17.942-8.219,17.942-18.357s-8.034-18.356-17.942-18.356h-50.651C2485.656,1263.695,2484.557,1270.852,2482.716,1277.876z"
	/>
<path fill="#FFFFFF" d="M2600.856,1274.847c0,10.139-8.22,18.356-18.356,18.356l0,0c-10.139,0-18.357-8.218-18.357-18.356l0,0
	c0-10.139,8.219-18.357,18.357-18.357l0,0C2592.637,1256.49,2600.856,1264.708,2600.856,1274.847L2600.856,1274.847z"/>
<path fill="#FFFFFF" d="M2332.189,1177.102c-1.691,3.915-4.128,7.654-7.486,11.116c-1.299,1.338-1.602,2.845-1.265,4.211h-45.269
	c-9.908,0-17.942-8.219-17.942-18.357s8.034-18.356,17.942-18.356h50.651C2329.249,1162.92,2330.349,1170.077,2332.189,1177.102z"/>
<path fill="#FFFFFF" d="M2296.66,1209.671c-1.692,3.915-4.128,7.654-7.487,11.116c-1.299,1.338-1.602,2.845-1.265,4.211h-45.269
	c-9.908,0-17.941-8.219-17.941-18.357s8.033-18.357,17.941-18.357h50.651C2293.719,1195.49,2294.818,1202.646,2296.66,1209.671z"/>
<path fill="#FFFFFF" d="M2390.466,1119.5c-70.969,0-128.5,57.531-128.5,128.5s57.531,128.5,128.5,128.5
	c70.968,0,128.5-57.531,128.5-128.5S2461.434,1119.5,2390.466,1119.5z M2388.45,1296.182c-8.526,0-15.653-1.817-22.501-3.913
	l-8.245-2.655c-0.979-0.419-1.398-1.118-0.979-2.097l3.913-10.201c0.419-0.979,1.118-1.258,1.956-0.839l7.827,2.655
	c5.868,1.816,12.298,2.936,18.028,2.936c12.438,0,19.846-6.848,20.125-18.309c0.139-10.202-6.011-16.771-18.589-16.771
	c-2.935,0-7.546,0.42-12.158,1.118l-12.299,1.678c-0.838,0.139-1.397-0.141-1.956-0.559l-1.117-1.119
	c-0.56-0.419-0.839-0.978-0.839-1.816v-47.797c0-0.979,0.559-1.537,1.536-1.537h53.946c1.117,0,1.678,0.699,1.257,1.678
	l-3.074,10.901c-0.279,0.837-0.838,1.257-1.816,1.257h-36.336v14.675c0,2.096,0,5.449-0.28,7.686
	c-0.279,1.538,0.28,1.538,1.957,1.258l3.913-0.559c3.495-0.559,7.128-0.839,9.783-0.839c19.706-0.14,31.864,11.461,31.864,30.746
	C2424.367,1284.024,2410.951,1296.182,2388.45,1296.182z"/>
</svg>
