<?xml version="1.0" encoding="utf-8"?>
<!-- Generator: Adobe Illustrator 16.0.0, SVG Export Plug-In . SVG Version: 6.00 Build 0)  -->
<!DOCTYPE svg PUBLIC "-//W3C//DTD SVG 1.1//EN" "http://www.w3.org/Graphics/SVG/1.1/DTD/svg11.dtd">
<svg version="1.1" id="Layer_1" xmlns="http://www.w3.org/2000/svg" xmlns:xlink="http://www.w3.org/1999/xlink" x="0px" y="0px"
	 width="416.586px" height="257px" viewBox="1199.379 1119.5 416.586 257" enable-background="new 1199.379 1119.5 416.586 257"
	 xml:space="preserve">
<path fill="#FFFFFF" d="M1337.8,1298.97c-1.692-3.915-4.128-7.654-7.486-11.116c-1.299-1.338-1.603-2.845-1.266-4.211h-45.269
	c-9.908,0-17.941,8.219-17.941,18.357s8.033,18.356,17.941,18.356h50.651C1334.858,1313.152,1335.959,1305.994,1337.8,1298.97z"/>
<path fill="#FFFFFF" d="M1256.31,1302c0,10.139-8.22,18.356-18.356,18.356l0,0c-10.139,0-18.357-8.218-18.357-18.356l0,0
	c0-10.139,8.219-18.357,18.357-18.357l0,0C1248.09,1283.643,1256.31,1291.862,1256.31,1302L1256.31,1302z"/>
<path fill="#FFFFFF" d="M1417.856,1119.5c-70.969,0-128.5,57.531-128.5,128.5s57.531,128.5,128.5,128.5
	c70.968,0,128.5-57.531,128.5-128.5S1488.824,1119.5,1417.856,1119.5z M1417.826,1293.378c-8.104,0-15.232-1.676-22.081-3.772
	l-8.246-2.655c-0.978-0.42-1.397-1.119-0.978-2.097l3.773-10.203c0.42-0.978,1.117-1.257,1.957-0.978l7.966,2.655
	c5.729,1.816,12.019,2.935,17.608,2.935c11.739,0,19.146-6.148,19.146-15.933c0-9.781-6.848-15.792-18.587-15.792h-6.709
	c-0.978,0-1.536-0.558-1.536-1.537v-10.761c0-0.978,0.559-1.537,1.536-1.537h6.568c9.922,0,15.654-5.171,15.654-12.856
	c0-8.806-6.289-14.115-16.073-14.115c-5.869,0-10.761,1.117-15.792,2.654l-6.988,2.376c-0.838,0.279-1.537-0.139-1.956-0.979
	l-3.494-10.342c-0.419-0.979,0-1.676,0.979-1.956l7.127-2.376c6.709-2.236,12.857-3.354,20.125-3.354
	c19.705,0,31.725,9.922,31.725,26.553c0,9.644-3.913,15.792-12.299,19.705c-1.397,0.698-1.397,1.538,0,2.097
	c10.343,4.192,15.374,12.857,15.374,23.897C1452.626,1282.617,1439.349,1293.378,1417.826,1293.378z"/>
<path fill="#FFFFFF" d="M1579.5,1179.847c0-9.516-7.713-17.229-17.229-17.229h-70.404c-9.516,0-17.229,7.713-17.229,17.229l0,0
	c0,9.515,7.713,17.228,17.229,17.228h70.404C1571.787,1197.074,1579.5,1189.362,1579.5,1179.847L1579.5,1179.847z"/>
<path fill="#FFFFFF" d="M1615.965,1229.643c0-9.516-7.713-17.229-17.229-17.229h-70.404c-9.516,0-17.229,7.713-17.229,17.229l0,0
	c0,9.515,7.713,17.228,17.229,17.228h70.404C1608.252,1246.87,1615.965,1239.157,1615.965,1229.643L1615.965,1229.643z"/>
</svg>
