<?xml version="1.0" encoding="utf-8"?>
<!-- Generator: Adobe Illustrator 16.0.0, SVG Export Plug-In . SVG Version: 6.00 Build 0)  -->
<!DOCTYPE svg PUBLIC "-//W3C//DTD SVG 1.1//EN" "http://www.w3.org/Graphics/SVG/1.1/DTD/svg11.dtd">
<svg version="1.1" id="Layer_1" xmlns="http://www.w3.org/2000/svg" xmlns:xlink="http://www.w3.org/1999/xlink" x="0px" y="0px"
	 width="356.857px" height="266px" viewBox="1718.999 1116.167 356.857 266" enable-background="new 1718.999 1116.167 356.857 266"
	 xml:space="preserve">
<path fill="#FFFFFF" d="M1810.294,1329.058c-1.692-3.915-4.128-7.654-7.486-11.116c-1.299-1.338-1.603-2.845-1.266-4.211h-45.269
	c-9.908,0-17.941,8.219-17.941,18.357s8.033,18.356,17.941,18.356h50.651C1807.353,1343.24,1808.453,1336.082,1810.294,1329.058z"/>
<path fill="#FFFFFF" d="M1790.961,1292.344c-1.692-3.915-4.128-7.654-7.486-11.116c-1.299-1.338-1.603-2.845-1.266-4.211h-45.269
	c-9.908,0-17.941,8.219-17.941,18.357s8.033,18.356,17.941,18.356h50.651C1788.02,1306.526,1789.12,1299.368,1790.961,1292.344z"/>
<path fill="#FFFFFF" d="M1957.716,1182.876c1.691,3.915,4.128,7.654,7.486,11.116c1.299,1.338,1.602,2.845,1.265,4.211h45.269
	c9.908,0,17.942-8.219,17.942-18.357s-8.034-18.356-17.942-18.356h-50.651C1960.656,1168.695,1959.557,1175.852,1957.716,1182.876z"
	/>
<path fill="#FFFFFF" d="M2075.856,1179.847c0,10.139-8.22,18.356-18.356,18.356l0,0c-10.139,0-18.357-8.218-18.357-18.356l0,0
	c0-10.139,8.219-18.357,18.357-18.357l0,0C2067.637,1161.49,2075.856,1169.708,2075.856,1179.847L2075.856,1179.847z"/>
<g>
	<path fill="#FFFFFF" d="M1878.674,1119.5c-70.969,0-128.5,57.531-128.5,128.5s57.531,128.5,128.5,128.5
		c70.968,0,128.5-57.531,128.5-128.5S1949.642,1119.5,1878.674,1119.5z M1911.778,1263.892c0,0.978-0.56,1.536-1.538,1.536h-8.665
		v23.479c0,0.979-0.56,1.537-1.537,1.537h-12.578c-0.978,0-1.536-0.559-1.536-1.537v-23.479h-46.818
		c-0.978,0-1.536-0.559-1.536-1.536v-11.739c0-0.839,0.139-1.397,0.697-1.957c3.494-4.053,6.568-7.825,9.923-12.438l25.854-33.261
		c2.656-3.494,4.752-6.849,7.128-10.761c0.559-0.7,1.118-0.979,1.956-0.979h16.91c0.978,0,1.537,0.56,1.537,1.539v57.299h8.665
		c0.979,0,1.538,0.559,1.538,1.537V1263.892z"/>
	<path fill="#FFFFFF" d="M1884.666,1213.161l-22.641,28.788c-1.816,2.517-4.472,5.731-6.429,7.548
		c-0.979,1.117-0.419,2.097,0.697,2.097h29.63v-24.178c0-4.472,0.279-8.944,0.838-13.695
		C1887.041,1212.042,1885.783,1211.624,1884.666,1213.161z"/>
</g>
</svg>
