<?xml version="1.0" encoding="utf-8"?>
<!-- Generator: Adobe Illustrator 16.0.0, SVG Export Plug-In . SVG Version: 6.00 Build 0)  -->
<!DOCTYPE svg PUBLIC "-//W3C//DTD SVG 1.1//EN" "http://www.w3.org/Graphics/SVG/1.1/DTD/svg11.dtd">
<svg version="1.1" id="Layer_1" xmlns="http://www.w3.org/2000/svg" xmlns:xlink="http://www.w3.org/1999/xlink" x="0px" y="0px"
	 width="377.257px" height="353px" viewBox="0 0 377.257 353" enable-background="new 0 0 377.257 353" xml:space="preserve">
<path opacity="0.1" fill="#727272" d="M214.732,55.385c-6.355-14.804-20.594-22.902-31.804-18.091L45.242,96.4
	c-11.21,4.813-15.146,20.714-8.792,35.518c6.355,14.803,20.594,22.902,31.805,18.091l28.896-12.404
	c-1.479-3.775-2.307-7.857-2.325-12.105c-0.008-1.982-0.062-3.956-0.173-5.926c-0.018-0.074-0.032-0.148-0.05-0.222
	c-0.05-0.075-0.092-0.151-0.144-0.226c-5.579-8.099-5.957-18.763-2.735-28.029C91.43,89.962,91.318,88.793,91.15,87
	c0.008-2.637,0.673-5.094,1.994-7.372c0.761-0.985,1.522-1.971,2.284-2.956c2.727-2.727,6.47-4.278,10.328-4.278
	c0.483,0,0.965,0.024,1.443,0.072c9.01-4.971,20.291-5.991,29.764-1.845c1.534-1.298,3.351-2.261,5.411-2.706
	c7.309-1.578,13.205-3.848,19.575-7.462c6.173-3.503,12.155-8.377,19.128-10.235c12.563-3.348,24.261,3.131,35.092,9.117
	C215.768,58.016,215.295,56.696,214.732,55.385z"/>
<path opacity="0.1" fill="#727272" d="M165.949,261.986c-3.799-2.492-7.188-5.692-9.237-9.361c-1.725-0.742-3.431-1.584-5.112-2.538
	c-9.646-5.477-17.389-13.947-23.187-23.299c-3.993-6.439-7.013-13.362-9.739-20.423c-5.169-8.342-8.878-17.155-11.156-26.523
	c-3.75,2.192-6.55,5.707-8.256,10.007l-60.104,25.803c-11.21,4.811-15.146,20.712-8.792,35.518
	c6.354,14.802,20.595,22.902,31.805,18.089l38.698-16.611c0.116,4.465,1.114,9.177,3.092,13.786
	c6.502,15.146,21.072,23.434,32.542,18.51l39.737-17.059c-1.933-0.68-3.814-1.534-5.609-2.586
	C168.944,264.311,167.387,263.196,165.949,261.986z"/>
<path opacity="0.1" fill="#727272" d="M330.528,58.283c-6.503-15.146-21.071-23.434-32.542-18.51l-62.091,26.655
	c3.302,0.455,6.608,0.902,9.871,1.58c6.281,1.304,12.76,3.681,17.418,7.738c0.965-0.482,1.953-0.942,2.998-1.117
	c0.426-0.072,0.804-0.135,1.157-0.193c1.947-0.975,4.124-1.541,6.418-1.541c7.962,0,14.606,6.644,14.606,14.606
	c0,1.423-0.233,2.795-0.627,4.102c0.08,0.624,0.134,1.254,0.127,1.898c-0.198,19.097-5.133,38.409-8.679,57.121
	c-1.568,8.279-3.8,16.538-7.218,24.191c-0.843,4.287-1.849,8.528-3.418,12.612c-5.294,13.782-11.919,25.703-22.207,36.463
	c-1.82,1.904-3.707,3.745-5.605,5.576c-2.833,4.275-6.111,8.281-9.783,11.492c-0.791,0.691-1.604,1.39-2.435,2.086
	c-0.71,1.196-1.486,2.335-2.334,3.401L311.08,210c11.47-4.922,15.498-21.193,8.996-36.339c-2.784-6.483-7.047-11.704-11.91-15.175
	c10.991-5.239,14.759-21.182,8.376-36.05c-3.786-8.818-10.307-15.306-17.357-18.22l22.348-9.594
	C333.003,89.698,337.03,73.429,330.528,58.283z"/>
<g>
	
		<path fill="#FFFFFF" stroke="#727272" stroke-width="6" stroke-linecap="round" stroke-linejoin="round" stroke-miterlimit="10" d="
		M158.359,139.035v-16.237c0-16.765,13.59-30.356,30.357-30.356l0,0c16.765,0,30.356,13.591,30.356,30.356v15.532"/>
	
		<path fill="#FFFFFF" stroke="#727272" stroke-width="6" stroke-linecap="round" stroke-linejoin="round" stroke-miterlimit="10" d="
		M188.715,126.383c25.146,0,45.53,20.385,45.53,45.53c-0.001,6.951-1.559,13.54-4.345,19.434"/>
	
		<path fill="#FFFFFF" stroke="#727272" stroke-width="6" stroke-linecap="round" stroke-linejoin="round" stroke-miterlimit="10" d="
		M223.24,201.594c-8.351,9.703-20.72,15.848-34.525,15.848c-25.144,0-45.529-20.386-45.529-45.529
		c0-21.128,14.393-38.896,33.908-44.033"/>
	<path fill="#FFFFFF" d="M182.151,171.157c-1.067-1.395-1.669-3.113-1.669-4.939c0-4.54,3.695-8.233,8.233-8.233
		c4.538,0,8.232,3.693,8.232,8.233c0,3.125-1.765,5.941-4.609,7.345c-0.676,0.336-1.097,1.02-1.097,1.771v11.124
		c0,1.393-1.135,2.526-2.526,2.526c-1.393,0-2.528-1.134-2.528-2.526v-11.124c0-0.751-0.429-1.435-1.096-1.771
		C183.907,172.978,182.912,172.15,182.151,171.157"/>
	<g>
		
			<path fill="#FFFFFF" stroke="#727272" stroke-width="6" stroke-linecap="round" stroke-linejoin="round" stroke-miterlimit="10" d="
			M188.255,155.292c-5.305,0-9.606,4.3-9.606,9.605c0,3.098,1.473,5.846,3.751,7.604v12.212c0,2.936,2.379,5.315,5.314,5.315
			c2.935,0,5.314-2.379,5.314-5.315v-11.487c2.884-1.659,4.831-4.763,4.831-8.329C197.86,159.593,193.56,155.292,188.255,155.292z"
			/>
	</g>
</g>
<path fill="#FFFFFF" stroke="#717171" stroke-width="4" stroke-miterlimit="10" d="M436.891,97"/>
<circle opacity="0.1" fill="#727272" cx="22.164" cy="188.982" r="22.159"/>
<line fill="#FFFFFF" stroke="#FFFFFF" stroke-width="6" stroke-linecap="round" stroke-linejoin="round" stroke-miterlimit="10" x1="243.198" y1="245.553" x2="281.064" y2="245.553"/>
<line fill="#FFFFFF" stroke="#FFFFFF" stroke-width="6" stroke-linecap="round" stroke-linejoin="round" stroke-miterlimit="10" x1="318.304" y1="245.553" x2="331.441" y2="245.553"/>
<g>
	<path fill="none" stroke="#727272" stroke-width="6" stroke-linecap="round" stroke-linejoin="round" stroke-miterlimit="10" d="
		M285.042,75.258l-8.302-1.465c-6.45-1.142-12.901-2.281-19.356-3.394c-15.953-2.746-32.049-7.915-49.217-15.803
		c-4.255-1.958-8.473-3.99-12.695-6.026l-3.069-1.478c-0.333-0.16-0.634-0.395-0.94-0.616c-0.183-0.138-0.369-0.273-0.556-0.401
		c-0.209-0.143-0.458-0.219-0.714-0.219h-1.526h-1.145c-0.201,0-0.402,0.047-0.583,0.142l-2.547,1.342
		c-1.872,0.992-3.742,1.989-5.653,2.909c-13.396,6.468-27.891,12.964-43.092,16.661c-7.305,1.776-14.853,3.18-22.152,4.535
		c-2.712,0.502-5.423,1.008-8.13,1.531c-2.966,0.573-5.948,1.075-8.929,1.575l-4.14,0.704c-0.607,0.104-1.051,0.63-1.051,1.248
		l0.019,11.653L91.38,88.8c0.072,0.355,0.145,0.712,0.166,1.067l0.371,7.556c0.429,8.649,0.856,17.295,1.228,25.948
		c0.543,12.581,2.179,24.166,5.01,35.415c0.878,3.48,1.846,7.135,2.917,10.868c0.099,0.394,0.218,0.786,0.343,1.172
		c2.742,9.407,6.219,19.322,11.06,28.668c12.127,23.392,26.209,41.508,43.062,55.388l1.002,0.827
		c7.715,6.357,15.696,12.931,24.785,17.791c1.578,0.842,3.311,1.65,5.616,2.617c0.459,0.192,0.999,0.296,1.521,0.296
		c0.068,0,0.135-0.004,0.203-0.009h0.003c0.035,0,0.073-0.002,0.111-0.003c0.355-0.032,0.665-0.104,0.946-0.225l1.047-0.447
		c2.211-0.948,4.502-1.929,6.65-3.145c7.101-4.017,14.009-8.926,21.12-15.017c8.389-7.18,18.044-15.915,26.026-26.283
		c15.61-20.281,26.126-40.92,32.144-63.096c2.934-10.804,6.052-23.647,6.983-36.985c0.474-6.835,0.811-13.785,1.133-20.509
		c0.154-3.196,0.308-6.39,0.474-9.584l0.786-14.688V76.5C286.087,75.889,285.644,75.365,285.042,75.258z"/>
</g>
<line fill="#FFFFFF" stroke="#727272" stroke-width="6" stroke-linecap="round" stroke-linejoin="round" stroke-miterlimit="10" x1="187.521" y1="45.857" x2="187.521" y2="77.684"/>
<line fill="#FFFFFF" stroke="#727272" stroke-width="6" stroke-linecap="round" stroke-linejoin="round" stroke-miterlimit="10" x1="187.521" y1="242.553" x2="187.521" y2="274.379"/>
<line opacity="0.5" fill="#FFFFFF" stroke="#E1782B" stroke-width="5" stroke-linecap="round" stroke-linejoin="round" stroke-miterlimit="10" x1="53.421" y1="81.602" x2="71.421" y2="81.602"/>
<line opacity="0.5" fill="#FFFFFF" stroke="#E1782B" stroke-width="5" stroke-linecap="round" stroke-linejoin="round" stroke-miterlimit="10" x1="79.959" y1="59.512" x2="64.883" y2="43.375"/>
<line opacity="0.5" fill="#FFFFFF" stroke="#E1782B" stroke-width="5" stroke-linecap="round" stroke-linejoin="round" stroke-miterlimit="10" x1="104.133" y1="51.443" x2="105.257" y2="33.76"/>
<path opacity="0.5" fill="#FFFFFF" stroke="#E1782B" stroke-width="4" stroke-linecap="round" stroke-linejoin="round" stroke-miterlimit="10" d="
	M356.67,111.706l16.174,16.173 M356.67,127.88l16.174-16.175 M364.757,119.792"/>
<path opacity="0.5" fill="#FFFFFF" stroke="#E1782B" stroke-width="4" stroke-linecap="round" stroke-linejoin="round" stroke-miterlimit="10" d="
	M235.111,9.914l16.174,16.173 M235.111,26.087l16.174-16.175 M243.198,18"/>
<path opacity="0.5" fill="#FFFFFF" stroke="#E1782B" stroke-width="4" stroke-linecap="round" stroke-linejoin="round" stroke-miterlimit="10" d="
	M83.354,287.58l-6.791,21.84 M69.038,295.104l21.843,6.791 M79.959,298.5"/>
</svg>
