<?xml version="1.0" encoding="utf-8"?>
<!-- Generator: Adobe Illustrator 16.0.0, SVG Export Plug-In . SVG Version: 6.00 Build 0)  -->
<!DOCTYPE svg PUBLIC "-//W3C//DTD SVG 1.1//EN" "http://www.w3.org/Graphics/SVG/1.1/DTD/svg11.dtd">
<svg version="1.1" id="Layer_1" xmlns="http://www.w3.org/2000/svg" xmlns:xlink="http://www.w3.org/1999/xlink" x="0px" y="0px"
	 width="377.258px" height="353px" viewBox="401 0 377.258 353" enable-background="new 401 0 377.258 353" xml:space="preserve">
<g>
	<path opacity="0.1" fill="#727272" enable-background="new    " d="M723.783,84.2c8.803-10.051,11.579-24.654,5.915-37.728
		c-7.837-18.088-28.854-26.4-46.943-18.563l-84.143,36.454c3.938-0.322,7.88-0.527,11.825-0.64
		c23.328-2.08,46.788-2.671,70.191-1.83c3.392,0.122,6.54,1.315,9.044,3.271c5.646-0.523,11.294-1.011,16.965-1.191
		c0.491-0.052,0.988-0.079,1.491-0.079h2c7.962,0,14.606,6.644,14.606,14.606c0,1.79-0.348,3.499-0.952,5.086V84.2z"/>
	<path opacity="0.1" fill="#727272" enable-background="new    " d="M455.561,256.918l1.634-0.708
		c-1.534-1.667-2.471-3.841-2.471-6.228v-71.758l-21.962,8.398c-5.896,2.255-10.843,5.908-14.621,10.432
		c-11.58,9.917-15.9,26.579-9.522,41.301C416.457,256.444,437.472,264.755,455.561,256.918z"/>
	<path opacity="0.1" fill="#727272" enable-background="new    " d="M519.628,297.787c-0.285,0-0.558-0.02-0.822-0.049
		c-0.764,0.349-1.656,0.549-2.678,0.549c-8.109,0-8.109-12.574,0-12.574c0.285,0,0.558,0.02,0.822,0.049
		c0.764-0.349,1.656-0.549,2.678-0.549h28.213v-9.758c-0.208-0.962-0.319-1.951-0.319-2.955c0-1.035,0.113-2.039,0.319-3.007
		v-10.027h-53.385l-31.601,12.083c-18.415,7.042-27.631,27.678-20.591,46.091c7.042,18.411,27.677,27.631,46.091,20.59
		l105.756-40.442H519.628z"/>
	<path opacity="0.1" fill="#727272" enable-background="new    " d="M627.529,259.466c-0.456,1.673-0.819,3.379-1.102,5.108
		c0.156,0.344,0.305,0.691,0.435,1.048c1.491,2.286,2.373,4.992,2.373,7.878c0,3.598-1.364,6.915-3.589,9.478
		c-0.033,0.754-0.082,1.504-0.127,2.256c0.375,0.02,0.736,0.059,1.074,0.131l66.233-25.328c0.469-0.18,0.928-0.374,1.386-0.57
		H627.529z"/>
	<path opacity="0.1" fill="#727272" enable-background="new    " d="M771.398,139.925c-2.245-5.871-5.878-10.802-10.375-14.575
		c-7.847-12.656-22.786-19.041-37.24-16.168v87.168l27.025-10.335C769.219,178.974,778.439,158.338,771.398,139.925z"/>
</g>
<path fill="#FFFFFF" stroke="#717171" stroke-width="4" stroke-miterlimit="10" d="M415.763,99"/>
<line fill="none" stroke="#FFFFFF" stroke-width="6" stroke-linecap="round" stroke-linejoin="round" stroke-miterlimit="10" x1="623.072" y1="247.553" x2="660.937" y2="247.553"/>
<line fill="none" stroke="#FFFFFF" stroke-width="6" stroke-linecap="round" stroke-linejoin="round" stroke-miterlimit="10" x1="698.177" y1="247.553" x2="711.314" y2="247.553"/>
<g opacity="0.5" enable-background="new    ">
	<path fill="#E1782B" d="M708.775,48.76l-0.857-17.98c-0.065-1.379,0.999-2.55,2.379-2.616c1.379-0.065,2.55,0.999,2.616,2.378
		l0.856,17.979c0.065,1.379-0.999,2.55-2.378,2.616S708.84,50.139,708.775,48.76z"/>
</g>
<g opacity="0.5" enable-background="new    ">
	<path fill="#E1782B" d="M731.247,56.236c-0.032-0.667,0.201-1.345,0.705-1.862l15.4-15.827c0.964-0.991,2.545-1.011,3.535-0.049
		c0.989,0.962,1.011,2.546,0.048,3.535l-15.4,15.828c-0.963,0.99-2.546,1.011-3.535,0.049
		C731.527,57.449,731.275,56.848,731.247,56.236z"/>
</g>
<g opacity="0.5" enable-background="new    ">
	<path fill="#E1782B" d="M740.458,80c-0.003-0.053-0.004-0.106-0.003-0.16c0.022-1.38,1.158-2.482,2.539-2.459l17.717,0.281
		c1.38,0.022,2.484,1.146,2.46,2.539c-0.022,1.381-1.159,2.482-2.54,2.459l-17.716-0.28C741.588,82.357,740.52,81.307,740.458,80z"
		/>
</g>
<g opacity="0.5" enable-background="new    ">
	<path fill="#FFFFFF" d="M422.707,40.116l16.174,16.173 M422.707,56.29l16.174-16.175"/>
	<path fill="#E1782B" d="M422.707,58.29c-0.512,0-1.023-0.195-1.414-0.586c-0.781-0.781-0.781-2.047,0-2.828l6.673-6.673
		l-6.673-6.672c-0.781-0.781-0.781-2.047,0-2.828s2.047-0.781,2.828,0l6.672,6.672l6.675-6.673c0.78-0.781,2.047-0.781,2.827,0
		c0.781,0.78,0.781,2.047,0,2.828l-6.672,6.673l6.672,6.672c0.781,0.781,0.781,2.047,0,2.828c-0.78,0.78-2.047,0.781-2.827,0
		l-6.673-6.672l-6.674,6.673C423.73,58.095,423.218,58.29,422.707,58.29z"/>
</g>
<g opacity="0.5" enable-background="new    ">
	<path fill="#FFFFFF" d="M756.562,235.391l8.958,21.046 M750.518,250.392l21.047-8.958"/>
	<path fill="#E1782B" d="M764.773,258.291c-0.475-0.191-0.876-0.563-1.093-1.071l-3.695-8.683l-8.684,3.694
		c-1.017,0.433-2.19-0.041-2.623-1.057c-0.433-1.017,0.04-2.19,1.057-2.623l8.683-3.696l-3.695-8.682
		c-0.433-1.017,0.041-2.191,1.057-2.623c1.017-0.433,2.19,0.04,2.623,1.057l3.696,8.681l8.684-3.694
		c1.017-0.434,2.19,0.04,2.623,1.057c0.434,1.016-0.04,2.19-1.057,2.623l-8.684,3.696l3.695,8.684
		c0.433,1.017-0.04,2.19-1.057,2.623C765.794,258.492,765.248,258.483,764.773,258.291z"/>
</g>
<g opacity="0.5" enable-background="new    ">
	<path fill="#FFFFFF" d="M426.445,253.001l-6.791,21.84 M412.129,260.525l21.842,6.791"/>
	<path fill="#E1782B" d="M419.654,276.842c-0.196,0-0.396-0.029-0.595-0.092c-1.055-0.327-1.643-1.448-1.315-2.504l2.802-9.012
		l-9.011-2.801c-1.055-0.328-1.644-1.449-1.315-2.504s1.451-1.646,2.502-1.316l9.012,2.803l2.801-9.01
		c0.328-1.055,1.448-1.644,2.503-1.315c1.056,0.328,1.644,1.449,1.316,2.504l-2.802,9.009l9.013,2.802
		c1.055,0.328,1.644,1.449,1.315,2.504c-0.326,1.057-1.445,1.646-2.502,1.316l-9.013-2.803l-2.802,9.012
		C421.297,276.291,420.506,276.842,419.654,276.842z"/>
</g>
<g>
	<path fill="#727272" d="M712.761,261.886H463.703c-7.051,0-12.574-5.71-12.574-13V72.432c0-7.087,5.405-12.432,12.574-12.432
		h249.059c7.496,0,13.367,5.46,13.367,12.432v176.454C726.128,255.933,720.007,261.886,712.761,261.886z M463.703,66
		c-3.933,0-6.574,2.584-6.574,6.432v176.454c0,3.99,2.826,7,6.574,7h249.059c3.993,0,7.367-3.206,7.367-7V72.432
		c0-4.026-3.746-6.432-7.367-6.432H463.703z"/>
</g>
<g>
	<rect x="544.346" y="262" fill="#727272" width="6" height="19.502"/>
</g>
<g>
	<rect x="626.119" y="262" fill="#727272" width="6" height="19.502"/>
</g>
<g>
	<path fill="#727272" d="M670.544,297H505.919v-9.499c0-4.132,4.738-6.501,13-6.501h138.625c8.262,0,13,2.369,13,6.501V297z
		 M511.919,291h152.625v-2.891c-0.821-0.45-3.11-1.109-7-1.109H518.919c-3.89,0-6.179,0.659-7,1.109V291z"/>
</g>
<g>
	<g>
		<path fill="#727272" d="M474.943,82.339h2.386v8.204h0.061c0.382-0.679,0.975-1.279,1.711-1.686
			c0.705-0.408,1.548-0.679,2.446-0.679c1.761,0,4.582,1.086,4.582,5.621v7.822h-2.389v-7.549c0-2.119-0.783-3.911-3.038-3.911
			c-1.552,0-2.77,1.087-3.202,2.391c-0.141,0.328-0.171,0.68-0.171,1.143v7.927h-2.386V82.339z"/>
		<path fill="#727272" d="M486.128,102.62h-2.389c-0.553,0-1-0.448-1-1v-7.549c0-2.911-1.534-2.911-2.038-2.911
			c-1.165,0-1.972,0.856-2.253,1.706c-0.095,0.23-0.12,0.44-0.12,0.828v7.927c0,0.552-0.447,1-1,1h-2.386c-0.553,0-1-0.448-1-1
			V82.339c0-0.552,0.447-1,1-1h2.386c0.553,0,1,0.448,1,1v5.813c0.094-0.06,0.189-0.116,0.287-0.17
			c0.903-0.522,1.923-0.804,2.931-0.804c2.575,0,5.582,1.734,5.582,6.621v7.822C487.128,102.173,486.681,102.62,486.128,102.62z
			 M484.74,100.62h0.389v-6.822c0-4.288-2.742-4.621-3.582-4.621c-0.101,0-0.199,0.004-0.295,0.012
			c2.196,0.251,3.488,2.036,3.488,4.881V100.62z M475.943,100.62h0.386v-6.927c0-0.57,0.043-1.05,0.252-1.537
			c0.085-0.256,0.192-0.501,0.32-0.733c-0.331-0.169-0.572-0.5-0.572-0.88v-7.204h-0.386V100.62z"/>
	</g>
	<g>
		<path fill="#727272" d="M495.466,84.705v3.774h3.421v1.817h-3.421v7.091c0,1.626,0.46,2.551,1.791,2.551
			c0.624,0,1.087-0.081,1.379-0.165l0.11,1.792c-0.462,0.19-1.19,0.327-2.112,0.327c-1.119,0-2.016-0.353-2.582-1.002
			c-0.681-0.709-0.923-1.876-0.923-3.422v-7.172h-2.042v-1.817h2.042v-3.15L495.466,84.705z"/>
		<path fill="#727272" d="M496.634,102.892c-1.415,0-2.568-0.465-3.336-1.345c-0.787-0.818-1.169-2.126-1.169-4.079v-6.172h-1.042
			c-0.553,0-1-0.448-1-1v-1.817c0-0.552,0.447-1,1-1h1.042v-2.15c0-0.453,0.305-0.849,0.742-0.966l2.337-0.624
			c0.301-0.08,0.621-0.016,0.867,0.173c0.246,0.189,0.391,0.482,0.391,0.793v2.774h2.421c0.553,0,1,0.448,1,1v1.817
			c0,0.552-0.447,1-1,1h-2.421v6.091c0,1.551,0.402,1.551,0.791,1.551c0.602,0,0.971-0.088,1.101-0.125
			c0.294-0.084,0.605-0.031,0.854,0.143c0.248,0.175,0.403,0.453,0.422,0.756l0.11,1.792c0.026,0.427-0.222,0.824-0.618,0.986
			C498.497,102.75,497.612,102.892,496.634,102.892z M493.547,89.387c0.344,0.158,0.582,0.506,0.582,0.909v7.172
			c0,1.385,0.211,2.278,0.645,2.729c0.521,0.596,1.306,0.688,1.907,0.695c-1.113-0.188-2.215-1.005-2.215-3.505v-7.091
			c0-0.403,0.238-0.75,0.582-0.909c-0.344-0.158-0.582-0.506-0.582-0.909v-2.472l-0.337,0.09v2.382
			C494.129,88.882,493.891,89.229,493.547,89.387z"/>
	</g>
	<g>
		<path fill="#727272" d="M507.498,84.813v3.774h3.422v1.817h-3.422v7.091c0,1.626,0.463,2.551,1.791,2.551
			c0.625,0,1.087-0.081,1.389-0.165l0.102,1.792c-0.461,0.19-1.188,0.327-2.114,0.327c-1.116,0-2.013-0.353-2.577-1.002
			c-0.683-0.709-0.925-1.876-0.925-3.422v-7.172h-2.034v-1.817h2.034v-3.15L507.498,84.813z"/>
		<path fill="#727272" d="M508.665,103c-1.395,0-2.578-0.478-3.332-1.347c-0.787-0.815-1.17-2.124-1.17-4.078v-6.172h-1.034
			c-0.553,0-1-0.448-1-1v-1.817c0-0.552,0.447-1,1-1h1.034v-2.15c0-0.453,0.305-0.849,0.742-0.966l2.335-0.624
			c0.3-0.08,0.621-0.016,0.867,0.173c0.246,0.189,0.391,0.482,0.391,0.793v2.774h2.422c0.553,0,1,0.448,1,1v1.817
			c0,0.552-0.447,1-1,1h-2.422v6.091c0,1.551,0.42,1.551,0.791,1.551c0.576,0,0.948-0.08,1.119-0.128
			c0.293-0.082,0.605-0.027,0.852,0.149s0.399,0.455,0.416,0.757l0.102,1.792c0.024,0.425-0.224,0.819-0.617,0.981
			C510.531,102.858,509.644,103,508.665,103z M505.581,89.495c0.344,0.158,0.582,0.506,0.582,0.909v7.172
			c0,1.385,0.211,2.277,0.646,2.729c0.521,0.599,1.359,0.704,1.904,0.696c-1.113-0.188-2.215-1.005-2.215-3.505v-7.091
			c0-0.403,0.238-0.75,0.582-0.909c-0.344-0.158-0.582-0.506-0.582-0.909v-2.472l-0.335,0.09v2.382
			C506.163,88.99,505.924,89.337,505.581,89.495z"/>
	</g>
	<g>
		<path fill="#727272" d="M516.239,92.768c0-1.682-0.063-3.042-0.11-4.289h2.145l0.109,2.255h0.05
			c0.977-1.606,2.526-2.556,4.671-2.556c3.182,0,5.566,2.692,5.566,6.683c0,4.725-2.879,7.061-5.97,7.061
			c-1.741,0-3.26-0.761-4.047-2.064h-0.06V107h-2.354V92.768z M518.593,96.27c0,0.353,0.06,0.679,0.111,0.981
			c0.433,1.656,1.872,2.795,3.584,2.795c2.525,0,3.996-2.065,3.996-5.079c0-2.633-1.39-4.887-3.916-4.887
			c-1.632,0-3.151,1.167-3.612,2.959c-0.081,0.302-0.163,0.654-0.163,0.979V96.27z"/>
		<path fill="#727272" d="M518.593,108h-2.354c-0.553,0-1-0.448-1-1V92.768c0-1.46-0.049-2.701-0.092-3.796l-0.018-0.455
			c-0.011-0.272,0.09-0.536,0.278-0.732s0.449-0.307,0.721-0.307h2.145c0.506,0,0.928,0.377,0.991,0.871
			c1.059-0.772,2.354-1.171,3.839-1.171c3.805,0,6.566,3.231,6.566,7.683c0,5.538-3.613,8.061-6.97,8.061
			c-1.149,0-2.217-0.283-3.106-0.8V107C519.593,107.552,519.146,108,518.593,108z M517.239,106h0.354v-6.143
			c0-0.464,0.315-0.854,0.744-0.967c-0.264-0.417-0.469-0.882-0.601-1.387c-0.007-0.028-0.021-0.106-0.026-0.134
			c-0.053-0.303-0.117-0.681-0.117-1.1v-2.252c0-0.444,0.1-0.875,0.197-1.238c0.098-0.379,0.235-0.738,0.407-1.072
			c-0.435-0.101-0.792-0.471-0.814-0.925l-0.063-1.304h-0.151c0.036,0.967,0.07,2.046,0.07,3.289V106z M523.396,89.187
			c2.334,0.504,3.889,2.74,3.889,5.78c0,2.851-1.168,4.922-3.098,5.719c1.896-0.621,3.482-2.488,3.482-5.825
			C527.669,91.638,525.927,89.351,523.396,89.187z M522.369,91.08c-1.223,0-2.31,0.908-2.644,2.208
			c-0.063,0.234-0.132,0.518-0.132,0.73v2.252c0,0.248,0.043,0.497,0.088,0.761c0.311,1.192,1.362,2.015,2.607,2.015
			c2.78,0,2.996-3.122,2.996-4.079C525.285,93.032,524.383,91.08,522.369,91.08z"/>
	</g>
	<g>
		<path fill="#727272" d="M533.733,99.18c0.704,0.458,1.952,0.947,3.149,0.947c1.733,0,2.547-0.867,2.547-1.955
			c0-1.141-0.674-1.767-2.445-2.416c-2.355-0.84-3.474-2.144-3.474-3.72c0-2.118,1.713-3.859,4.54-3.859
			c1.329,0,2.496,0.381,3.232,0.815l-0.605,1.741c-0.513-0.327-1.46-0.761-2.688-0.761c-1.407,0-2.193,0.811-2.193,1.792
			c0,1.085,0.786,1.576,2.496,2.226c2.274,0.87,3.442,2.007,3.442,3.965c0,2.306-1.791,3.936-4.914,3.936
			c-1.438,0-2.767-0.353-3.692-0.896L533.733,99.18z"/>
		<path fill="#727272" d="M536.821,102.892c-1.549,0-3.08-0.377-4.198-1.034c-0.407-0.239-0.592-0.73-0.443-1.178l0.604-1.816
			c0.099-0.294,0.327-0.526,0.619-0.628s0.615-0.064,0.875,0.105c0.582,0.378,1.645,0.786,2.604,0.786
			c0.706,0,1.547-0.166,1.547-0.955c0-0.404,0-0.821-1.789-1.477c-3.412-1.217-4.13-3.206-4.13-4.659c0-2.815,2.33-4.859,5.54-4.859
			c1.349,0,2.712,0.348,3.74,0.954c0.41,0.242,0.593,0.74,0.437,1.19l-0.605,1.741c-0.101,0.289-0.327,0.516-0.616,0.616
			c-0.288,0.101-0.607,0.063-0.865-0.102c-0.285-0.182-1.065-0.604-2.15-0.604c-0.577,0-1.193,0.208-1.193,0.792
			c0,0.302,0,0.587,1.852,1.292c1.756,0.671,4.087,1.909,4.087,4.9C542.735,100.908,540.358,102.892,536.821,102.892z
			 M535.515,89.943c-0.639,0.502-1.005,1.226-1.005,2.094c0,1.178,0.945,2.113,2.81,2.778c1.619,0.593,3.109,1.408,3.109,3.357
			c0,0.735-0.273,1.473-0.853,2.027c0.749-0.505,1.158-1.271,1.158-2.243c0-1.177-0.477-2.143-2.8-3.031
			c-1.323-0.503-3.139-1.194-3.139-3.16C534.796,91.112,535.04,90.456,535.515,89.943z"/>
	</g>
</g>
<g>
	<g>
		<path fill="#727272" d="M700.128,94.669l-11.938,11.938l-1.188-1.135l9.993-10.046L676.2,95.479v-1.675l20.796,0.054
			l-9.993-10.046l1.188-1.081l11.938,11.883V94.669z"/>
		<path fill="#727272" d="M688.191,108.107c-0.373,0-0.746-0.138-1.036-0.416l-1.188-1.135c-0.291-0.278-0.459-0.662-0.464-1.065
			c-0.005-0.403,0.152-0.791,0.437-1.077l7.439-7.479l-17.175,0.045c-0.001,0-0.003,0-0.004,0c-0.397,0-0.778-0.157-1.06-0.438
			c-0.282-0.281-0.44-0.664-0.44-1.062v-1.675c0-0.398,0.158-0.781,0.44-1.062c0.281-0.281,0.662-0.438,1.06-0.438
			c0.001,0,0.003,0,0.004,0l17.175,0.045l-7.439-7.479c-0.289-0.29-0.446-0.686-0.437-1.095c0.011-0.409,0.188-0.797,0.491-1.072
			l1.188-1.081c0.589-0.538,1.5-0.518,2.067,0.047l11.938,11.883c0.282,0.281,0.441,0.664,0.441,1.063
			c0,0.398-0.158,0.833-0.439,1.114l-11.938,11.938C688.959,107.96,688.575,108.107,688.191,108.107z"/>
	</g>
</g>
<path fill="none" stroke="#727272" stroke-width="6" stroke-miterlimit="10" d="M455.128,125c2,0,267,0,267,0"/>
<g opacity="0.4">
	<path fill="#727272" d="M699.128,262h-222c-1.657,0-3-1.343-3-3V154c0-1.657,1.343-3,3-3h222c1.657,0,3,1.343,3,3v105
		C702.128,260.657,700.786,262,699.128,262z M480.128,256h216v-99h-216V256z"/>
</g>
<g opacity="0.5">
	<g>
		<path fill="#727272" d="M547.128,91.039c0-0.998,0.678-1.696,1.615-1.696c0.948,0,1.566,0.698,1.597,1.696
			c0,0.942-0.619,1.671-1.617,1.671C547.776,92.71,547.128,91.981,547.128,91.039z M547.128,100.55c0-0.996,0.678-1.699,1.615-1.699
			c0.948,0,1.566,0.703,1.597,1.699c0,0.944-0.619,1.668-1.617,1.668C547.776,102.218,547.128,101.493,547.128,100.55z"/>
		<path fill="#727272" d="M548.723,103.218c-1.479,0-2.595-1.147-2.595-2.668c0-1.539,1.124-2.699,2.615-2.699
			c1.48,0,2.549,1.098,2.597,2.669C551.34,102.095,550.24,103.218,548.723,103.218z M548.744,99.85
			c-0.385,0-0.615,0.261-0.615,0.699c0,0.157,0.043,0.668,0.595,0.668c0.51,0,0.617-0.363,0.617-0.668
			C549.331,100.247,549.219,99.85,548.744,99.85z M548.723,93.71c-1.479,0-2.595-1.148-2.595-2.671c0-1.537,1.124-2.696,2.615-2.696
			c1.481,0,2.549,1.096,2.597,2.666C551.34,92.587,550.24,93.71,548.723,93.71z M548.744,90.344c-0.556,0-0.615,0.487-0.615,0.696
			c0,0.324,0.156,0.671,0.595,0.671c0.537,0,0.617-0.42,0.617-0.671C549.331,90.739,549.219,90.344,548.744,90.344z"/>
	</g>
	<g>
		<path fill="#727272" d="M554.944,103l7.521-19.528h1.826L556.749,103H554.944z"/>
		<path fill="#727272" d="M556.749,104h-1.805c-0.329,0-0.638-0.163-0.824-0.434s-0.228-0.618-0.109-0.925l7.521-19.528
			c0.149-0.386,0.52-0.641,0.934-0.641h1.826c0.33,0,0.639,0.163,0.825,0.435c0.186,0.272,0.227,0.618,0.107,0.926l-7.543,19.528
			C557.533,103.746,557.162,104,556.749,104z"/>
	</g>
	<g>
		<path fill="#727272" d="M561.723,103l7.513-19.528h1.834L563.528,103H561.723z"/>
		<path fill="#727272" d="M563.528,104h-1.805c-0.329,0-0.638-0.162-0.824-0.434c-0.187-0.271-0.228-0.618-0.109-0.925l7.513-19.528
			c0.148-0.386,0.52-0.641,0.934-0.641h1.834c0.33,0,0.639,0.163,0.825,0.435c0.186,0.272,0.227,0.618,0.107,0.926l-7.542,19.528
			C564.312,103.746,563.941,104,563.528,104z"/>
	</g>
</g>
<g opacity="0.4">
	<path fill="#727272" d="M577.128,189h-76c-1.657,0-3-1.343-3-3s1.343-3,3-3h76c1.657,0,3,1.343,3,3S578.786,189,577.128,189z"/>
</g>
<g opacity="0.4">
	<path fill="#727272" d="M577.128,209h-76c-1.657,0-3-1.343-3-3s1.343-3,3-3h76c1.657,0,3,1.343,3,3S578.786,209,577.128,209z"/>
</g>
<g opacity="0.4">
	<path fill="#727272" d="M541.128,229h-40c-1.657,0-3-1.343-3-3s1.343-3,3-3h40c1.657,0,3,1.343,3,3S542.786,229,541.128,229z"/>
</g>
<g opacity="0.4">
	<path fill="#727272" d="M673.128,237h-64c-1.657,0-3-1.343-3-3v-51c0-1.657,1.343-3,3-3h64c1.657,0,3,1.343,3,3v51
		C676.128,235.657,674.786,237,673.128,237z M612.128,231h58v-45h-58V231z"/>
</g>
</svg>
