<?xml version="1.0" encoding="utf-8"?>
<!-- Generator: Adobe Illustrator 16.0.0, SVG Export Plug-In . SVG Version: 6.00 Build 0)  -->
<!DOCTYPE svg PUBLIC "-//W3C//DTD SVG 1.1//EN" "http://www.w3.org/Graphics/SVG/1.1/DTD/svg11.dtd">
<svg version="1.1" id="Layer_1" xmlns="http://www.w3.org/2000/svg" xmlns:xlink="http://www.w3.org/1999/xlink" x="0px" y="0px"
	 width="377.258px" height="353px" viewBox="401 373 377.258 353" enable-background="new 401 373 377.258 353"
	 xml:space="preserve">
<path fill="#FFFFFF" stroke="#717171" stroke-width="4" stroke-miterlimit="10" d="M415.763,468.043"/>
<line fill="none" stroke="#FFFFFF" stroke-width="6" stroke-linecap="round" stroke-linejoin="round" stroke-miterlimit="10" x1="623.072" y1="616.596" x2="660.937" y2="616.596"/>
<line fill="none" stroke="#FFFFFF" stroke-width="6" stroke-linecap="round" stroke-linejoin="round" stroke-miterlimit="10" x1="698.177" y1="616.596" x2="711.314" y2="616.596"/>
<g opacity="0.5" enable-background="new    ">
	<path fill="#FFFFFF" d="M422.279,408.179l16.174,16.173 M422.279,424.353l16.174-16.175"/>
	<path fill="#E1782B" d="M422.279,426.353c-0.512,0-1.023-0.195-1.414-0.586c-0.781-0.781-0.781-2.047,0-2.828l6.673-6.673
		l-6.673-6.672c-0.781-0.781-0.781-2.047,0-2.828s2.047-0.781,2.828,0l6.672,6.672l6.675-6.673c0.78-0.781,2.047-0.781,2.827,0
		c0.781,0.78,0.781,2.047,0,2.828l-6.672,6.673l6.672,6.672c0.781,0.781,0.781,2.047,0,2.828c-0.78,0.78-2.047,0.781-2.827,0
		l-6.673-6.672l-6.674,6.673C423.302,426.157,422.791,426.353,422.279,426.353z"/>
</g>
<g opacity="0.5" enable-background="new    ">
	<path fill="#FFFFFF" d="M756.562,604.434l8.958,21.046 M750.518,619.435l21.047-8.958"/>
	<path fill="#E1782B" d="M764.773,627.334c-0.475-0.191-0.876-0.563-1.093-1.071l-3.695-8.683l-8.684,3.694
		c-1.017,0.433-2.19-0.041-2.623-1.057c-0.433-1.017,0.04-2.19,1.057-2.623l8.683-3.696l-3.695-8.682
		c-0.433-1.017,0.041-2.191,1.057-2.623c1.017-0.433,2.19,0.04,2.623,1.057l3.696,8.681l8.684-3.694
		c1.017-0.434,2.19,0.04,2.623,1.057c0.434,1.016-0.04,2.19-1.057,2.623l-8.684,3.696l3.695,8.684
		c0.433,1.017-0.04,2.19-1.057,2.623C765.794,627.535,765.248,627.526,764.773,627.334z"/>
</g>
<g opacity="0.5" enable-background="new    ">
	<g>
		<path fill="#FFFFFF" d="M648.125,500l8.958,21.046 M642.081,515.001l21.047-8.958"/>
	</g>
	<g>
		<path fill="#E1782B" d="M656.335,522.901c-0.475-0.191-0.876-0.563-1.093-1.071l-3.695-8.683l-8.684,3.694
			c-1.017,0.433-2.19-0.041-2.623-1.057c-0.433-1.017,0.04-2.19,1.057-2.623l8.683-3.696l-3.695-8.682
			c-0.433-1.017,0.041-2.191,1.057-2.623c1.017-0.433,2.19,0.04,2.623,1.057l3.696,8.681l8.684-3.694
			c1.017-0.434,2.19,0.04,2.623,1.057c0.434,1.016-0.04,2.19-1.057,2.623l-8.684,3.696l3.695,8.684
			c0.433,1.017-0.04,2.19-1.057,2.623C657.357,523.102,656.81,523.092,656.335,522.901z"/>
	</g>
</g>
<g>
	<path fill="#727272" d="M470.996,455.506c0-3.533,2.426-5.906,6.038-5.906h228.718c3.325,0,6.766,2.21,6.766,5.906V511
		c1.611,0,5.408,0,5.51,0v-55.494c0-6.401-5.392-11.416-12.275-11.416H477.034c-6.584,0-11.548,4.907-11.548,11.416V607
		l240.079,0.487l-234.569-0.854V455.506z"/>
	<polygon fill="#727272" points="712.517,607.513 712.517,607.502 705.565,607.488 	"/>
	<path fill="#727272" d="M712.517,545v62.502l5.51,0.011V545C718.027,545,714.358,545.407,712.517,545z"/>
	<line fill="#727272" x1="465.486" y1="608.432" x2="465.486" y2="607"/>
</g>
<g opacity="0.4">
	<path fill="#727272" d="M577.128,498h-76c-1.657,0-3-1.343-3-3s1.343-3,3-3h76c1.657,0,3,1.343,3,3S578.786,498,577.128,498z"/>
</g>
<g opacity="0.4">
	<path fill="#727272" d="M577.128,518h-76c-1.657,0-3-1.343-3-3s1.343-3,3-3h76c1.657,0,3,1.343,3,3S578.786,518,577.128,518z"/>
</g>
<g opacity="0.4">
	<path fill="#727272" d="M541.128,538h-40c-1.657,0-3-1.343-3-3s1.343-3,3-3h40c1.657,0,3,1.343,3,3S542.786,538,541.128,538z"/>
</g>
<path fill="#727272" d="M735.128,623"/>
<g>
	<path fill="#727272" d="M720.398,627h-261c-6.579,0-13.669-3.232-17.643-8.043c-2.684-3.25-3.733-6.889-3.034-10.523L439.19,606
		h301.54l0.368,2.576c0.486,3.406-0.82,7.099-3.68,10.396C733.188,623.849,726.507,627,720.398,627z M444.692,612
		c0.266,1.047,0.83,2.095,1.689,3.136c2.853,3.453,8.204,5.864,13.017,5.864h261c4.31,0,9.444-2.45,12.487-5.96
		c0.887-1.021,1.53-2.053,1.911-3.04H444.692z"/>
</g>
<path opacity="0.1" fill="#727272" enable-background="new    " d="M775.755,576.698l-1.363-3.761
	c-4.991-13.774-15.704-23.511-27.547-26.63c8.283-10.757,11.285-24.25,6.807-36.609l-1.363-3.761
	c-4.547-12.547-15.763-21.044-29.284-23.873l2.26-0.819c24.294-8.804,37.888-32.776,30.362-53.547l-1.363-3.761
	c-7.526-20.771-33.32-30.471-57.616-21.668L581.424,444.02h124.542c6.884,0,12.275,5.015,12.275,11.416v63.863
	c0.088,0.02,0.176,0.038,0.264,0.059c1.192-0.143,2.496,0.142,3.819,1.035c0.465,0.122,0.923,0.236,1.366,0.326
	c6.385,1.296,12.723,2.973,18.791,5.386c3.955,1.572,10.922,3.858,8.449,9.92c-1.976,4.84-6.144,6.923-11.235,5.226
	c-0.068-0.022-0.129-0.052-0.195-0.076c-5.041-0.47-10.181-3.165-15.006-4.079c-2.096-0.397-4.208-0.764-6.253-1.329v71.677
	l-252.541-0.513V485.952l-28.589,10.359c-24.294,8.804-37.888,32.776-30.362,53.547l1.363,3.761
	c4.547,12.547,15.764,21.044,29.284,23.873l-2.26,0.819c-24.294,8.804-37.888,32.776-30.362,53.547l1.363,3.761
	c7.526,20.771,33.321,30.471,57.616,21.668l55.015-19.935c-2.641,8.466-2.547,18.307,0.92,27.876l1.363,3.761
	c7.526,20.771,28.062,32.377,45.868,25.925l190.221-68.927C774.947,619.534,783.281,597.468,775.755,576.698z M719.9,623.02h-261
	c-8.917,0-19.27-7-17.73-15H737.63C738.63,615.02,728.817,623.02,719.9,623.02z"/>
<line opacity="0.5" fill="none" stroke="#727272" stroke-width="6" stroke-miterlimit="10" x1="485.128" y1="608" x2="485.128" y2="607"/>
<g opacity="0.5">
	<path fill="#727272" d="M696.128,594c-1.657,0-3-1.343-3-3v-39c0-1.657,1.343-3,3-3s3,1.343,3,3v39
		C699.128,592.657,697.786,594,696.128,594z"/>
</g>
<g opacity="0.5">
	<path fill="#727272" d="M696.128,485c-1.657,0-3-1.343-3-3v-10h-5c-1.657,0-3-1.343-3-3s1.343-3,3-3h8c1.657,0,3,1.343,3,3v13
		C699.128,483.657,697.786,485,696.128,485z"/>
</g>
<g opacity="0.5">
	<path fill="#727272" d="M485.128,593.122c-1.657,0-3-1.343-3-3V469c0-1.657,1.343-3,3-3h127c1.657,0,3,1.343,3,3s-1.343,3-3,3h-124
		v118.122C488.128,591.78,486.786,593.122,485.128,593.122z"/>
</g>
<g>
	<rect x="469.128" y="589" fill="#727272" width="246" height="6"/>
</g>
<g>
	<path fill="#727272" d="M652.66,556c-4.028,0-8.059-0.541-11.979-1.609c-24.207-6.595-38.536-31.653-31.941-55.859
		c5.381-19.756,23.424-33.553,43.876-33.553c4.029,0,8.062,0.542,11.983,1.61c19.748,5.38,33.524,23.591,33.542,43.858
		l49.795,13.564c6.385,1.74,10.164,8.35,8.425,14.733c-1.418,5.209-6.178,8.848-11.573,8.848c0,0,0,0-0.001,0
		c-1.063,0-2.125-0.143-3.158-0.424l-49.794-13.564C683.682,547.481,668.888,556,652.66,556z M652.615,470.979
		c-17.754,0-33.415,11.979-38.087,29.129c-5.725,21.015,6.714,42.769,27.729,48.494c3.408,0.928,6.908,1.398,10.403,1.398
		c14.795,0,28.216-8.158,35.026-21.29l1.115-2.15l54.402,14.82c0.52,0.142,1.052,0.213,1.583,0.213c2.696,0,5.075-1.819,5.784-4.425
		c0.87-3.192-1.021-6.497-4.213-7.367l-54.402-14.82l0.129-2.418c0.987-18.428-11.235-35.327-29.063-40.185
		C659.613,471.449,656.111,470.979,652.615,470.979z"/>
</g>
<g opacity="0.5">
	<path fill="#727272" d="M651.977,545.59c-3.056,0-6.112-0.411-9.085-1.221c-8.892-2.422-16.307-8.162-20.882-16.162
		c-4.574-8-5.76-17.302-3.338-26.192c4.081-14.979,17.763-25.44,33.271-25.44c3.055,0,6.11,0.411,9.083,1.221
		c8.892,2.422,16.307,8.162,20.882,16.162c4.574,8,5.76,17.302,3.338,26.192C681.167,535.129,667.485,545.59,651.977,545.59z
		 M651.944,482.574c-12.81,0-24.11,8.643-27.482,21.018c-2.001,7.344-1.021,15.028,2.758,21.637
		c3.779,6.609,9.905,11.351,17.249,13.352c2.46,0.67,4.986,1.01,7.509,1.01c12.81,0,24.109-8.643,27.48-21.017
		c2.001-7.345,1.021-15.029-2.758-21.638c-3.779-6.609-9.905-11.351-17.249-13.352C656.992,482.914,654.465,482.574,651.944,482.574
		z"/>
</g>
<g opacity="0.5">
	<path fill="#727272" d="M681.128,593c-1.657,0-3-1.343-3-3v-16h-175v16c0,1.657-1.343,3-3,3s-3-1.343-3-3v-19c0-1.657,1.343-3,3-3
		h181c1.657,0,3,1.343,3,3v19C684.128,591.657,682.786,593,681.128,593z"/>
</g>
<g opacity="0.5" enable-background="new    ">
	<path fill="#FFFFFF" d="M426.231,621.554l-6.791,21.84 M411.916,629.077l21.842,6.791"/>
	<path fill="#E1782B" d="M419.44,645.395c-0.196,0-0.396-0.029-0.595-0.092c-1.055-0.327-1.643-1.448-1.315-2.504l2.802-9.012
		l-9.011-2.801c-1.055-0.328-1.644-1.449-1.315-2.504s1.451-1.646,2.502-1.316l9.012,2.803l2.801-9.01
		c0.328-1.055,1.448-1.644,2.503-1.315c1.056,0.328,1.644,1.449,1.316,2.504l-2.802,9.009l9.013,2.802
		c1.055,0.328,1.644,1.449,1.315,2.504c-0.326,1.057-1.445,1.646-2.502,1.316l-9.013-2.803l-2.802,9.012
		C421.083,644.844,420.292,645.395,419.44,645.395z"/>
</g>
<circle opacity="0.1" fill="#727272" enable-background="new    " cx="477.129" cy="690.334" r="26.667"/>
</svg>
