<?xml version="1.0" encoding="utf-8"?>
<!-- Generator: Adobe Illustrator 16.0.0, SVG Export Plug-In . SVG Version: 6.00 Build 0)  -->
<!DOCTYPE svg PUBLIC "-//W3C//DTD SVG 1.1//EN" "http://www.w3.org/Graphics/SVG/1.1/DTD/svg11.dtd">
<svg version="1.1" id="Layer_1" xmlns="http://www.w3.org/2000/svg" xmlns:xlink="http://www.w3.org/1999/xlink" x="0px" y="0px"
	 width="377px" height="353px" viewBox="0 0 377 353" enable-background="new 0 0 377 353" xml:space="preserve">
<g opacity="0.1" enable-background="new    ">
	<path fill="#727272" d="M165.784,125.883c-2.253-2.199-5.446-3.443-8.333-4.59c-9.933-3.945-18.36-2.792-27.882,1.889
		c-7.659,3.765-11.976,11.028-13.627,19.238c-0.35,1.738-1.205,2.937-2.309,3.661c0.393-0.071,0.803-0.122,1.246-0.122
		c1.229,0,2.269,0.293,3.126,0.781c0.752-0.336,1.626-0.528,2.624-0.531c17.918-0.041,35.82-0.971,53.731-1.514
		c-0.532-2.209-1.315-4.391-2.35-6.69C170.303,134.211,168.827,128.854,165.784,125.883z"/>
</g>
<g opacity="0.1" enable-background="new    ">
	<path fill="#727272" d="M377.357,212.926l-1.362-3.763c-4.991-13.772-15.704-23.511-27.547-26.63
		c8.282-10.757,11.284-24.25,6.807-36.607l-1.362-3.763c-4.547-12.547-15.764-21.044-29.285-23.872l2.262-0.818
		c24.294-8.804,37.888-32.776,30.361-53.547l-1.362-3.762c-7.526-20.771-33.32-30.472-57.616-21.669L183.027,80.248L76.483,118.855
		c2.853,10.191,13.463,17.757,21.569,23.215c1.055,0.71,1.786,1.579,2.244,2.521c1.74-0.672,3.729-0.658,5.256,0.479
		c0.54,0.4,1.093,0.792,1.695,1.099c0.107,0.054,0.188,0.097,0.255,0.134c0.063,0.017,0.131,0.033,0.217,0.057
		c0.008,0.002,0.016,0.003,0.023,0.006c-2.606-1.116-4.64-3.744-3.927-7.286c2.209-10.979,9.062-21.864,19.407-26.753
		c11.603-5.479,23.636-8.69,36.058-3.758c4.77,1.896,9.872,3.701,13.859,7.036c4.026,3.368,6.076,8.058,8.215,12.723
		c2.345,5.115,5.054,10.445,6.018,16.063c0.211-0.003,0.421-0.01,0.632-0.013c11.045-0.16,22.092-0.315,33.139-0.378
		c5.705-0.03,11.535-0.382,17.213,0.288c4.846,0.569,9.647,1.401,14.522,1.676c2.272,0.128,3.908,1.22,4.903,2.711
		c0.561,0.009,1.148,0.087,1.769,0.264c14.474,4.141,25.591,19.899,30.839,33.314c5.625,14.379,0.854,30.576-10.313,40.951
		c-5.817,5.403-12.564,10.103-19.311,14.271c-6.836,4.226-14.365,7.864-22.508,8.445c-9.011,0.645-18.066,0.708-27.131,0.623v28.705
		c0,1.445-0.513,2.773-1.365,3.812c0.195,9.377,0.365,17.132,0.365,17.132c0,3.345-8.104,6.059-11.934,6.059h-76.617l1.077,2.97
		c7.526,20.771,28.062,32.377,45.868,25.925l190.221-68.927C376.549,255.763,384.883,233.696,377.357,212.926z"/>
</g>
<g opacity="0.1" enable-background="new    ">
	<path fill="#727272" d="M185.225,195.157c3.374-0.352,7.16-0.642,10.513,0.091h2.459c3.828,0,11.932,2.712,11.932,6.057
		l-1.133,7.359c1.303,1.101,2.133,2.742,2.133,4.584v20.556c5.944,0.029,11.889,0.021,17.832-0.112
		c7.725-0.177,14.404-0.731,21.27-4.601c5.496-3.098,10.793-6.686,15.836-10.473c9.183-6.894,17.386-17.984,13.273-30.083
		c-3.418-10.057-12.271-24.368-23.133-27.476c-1.658-0.475-2.809-1.4-3.523-2.54c-5.416-0.326-10.734-1.496-16.145-1.832
		c-5.116-0.314-10.271-0.148-15.396-0.117c-11.047,0.071-22.093,0.217-33.139,0.377c-0.392,0.008-0.785,0.02-1.177,0.023
		c-0.252,2.501-0.305,4.938,0.364,7.104c2.4,7.771-9.741,11.066-12.126,3.346c-1.038-3.361-0.763-6.749-0.399-10.155
		c-18.013,0.541-36.017,1.479-54.038,1.521c-1.23,0.005-2.27-0.285-3.127-0.773c-0.752,0.333-1.625,0.523-2.623,0.523
		c-0.809,0-1.532-0.131-2.179-0.354c0.895,0.991,1.466,2.345,1.466,4.068v25c0,8.107-12.575,8.107-12.575,0v-25
		c0-1.786,0.611-3.179,1.562-4.179c-1.4-0.519-2.735-1.242-3.947-2.145c-0.891-0.662-1.636-1.465-2.175-2.355
		c-1.55,0.688-3.419,0.641-5.325-0.645c-6.595-4.439-12.958-8.583-17.897-14.934c-3.441-4.423-7.354-9.359-9.16-14.853
		l-25.934,9.396c-24.294,8.806-37.888,32.776-30.362,53.549l1.363,3.761c4.547,12.547,15.764,21.044,29.284,23.873l-2.26,0.817
		c-24.294,8.806-37.888,32.776-30.362,53.547l1.363,3.763c7.526,20.771,33.321,30.471,57.616,21.668l20.771-7.526v-77.685
		c-5.494-2.296-4.665-12.104,2.5-12.097c0.228,0,0.456,0.006,0.685,0.007c1.081-0.609,2.366-0.969,3.748-0.969h91.24
		C184.608,195.217,184.917,195.192,185.225,195.157z"/>
</g>
<g opacity="0.5" enable-background="new    ">
	<g>
		<path fill="#FFFFFF" d="M104.128,22.073l16.174,16.175 M104.128,38.248l16.174-16.177"/>
	</g>
	<g>
		<path fill="#E1782B" d="M120.302,40.248c-0.512,0-1.022-0.195-1.414-0.588l-6.672-6.672l-6.674,6.672
			c-0.781,0.78-2.047,0.78-2.828,0c-0.781-0.779-0.781-2.047,0-2.826l6.672-6.675l-6.672-6.672c-0.781-0.779-0.781-2.048,0-2.828
			c0.781-0.779,2.047-0.779,2.828,0l6.672,6.673l6.674-6.675c0.781-0.779,2.047-0.779,2.828,0c0.781,0.78,0.781,2.047,0,2.828
			l-6.673,6.674l6.673,6.675c0.781,0.779,0.781,2.047,0,2.826C121.326,40.053,120.814,40.248,120.302,40.248z"/>
	</g>
</g>
<g opacity="0.5" enable-background="new    ">
	<g>
		<path fill="#FFFFFF" d="M317.128,58.073l16.174,16.173 M317.128,74.248l16.174-16.177"/>
	</g>
	<g>
		<path fill="#E1782B" d="M317.128,76.248c-0.512,0-1.022-0.195-1.414-0.588c-0.78-0.779-0.78-2.047,0-2.826l6.673-6.675
			l-6.673-6.672c-0.78-0.779-0.78-2.047,0-2.828c0.781-0.779,2.047-0.779,2.828,0l6.672,6.674l6.675-6.675
			c0.78-0.779,2.047-0.779,2.827,0c0.781,0.78,0.781,2.049,0,2.828l-6.672,6.673l6.672,6.674c0.781,0.779,0.781,2.047,0,2.826
			c-0.78,0.78-2.047,0.781-2.827,0l-6.673-6.672l-6.674,6.673C318.152,76.053,317.641,76.248,317.128,76.248z"/>
	</g>
</g>
<g opacity="0.5" enable-background="new    ">
	<g>
		<path fill="#FFFFFF" d="M37.955,313.248l16.174,16.173 M37.955,329.422l16.174-16.177"/>
	</g>
	<g>
		<path fill="#E1782B" d="M37.955,331.422c-0.512,0-1.023-0.195-1.414-0.586c-0.781-0.781-0.781-2.047,0-2.828l6.673-6.673
			l-6.673-6.673c-0.781-0.78-0.781-2.048,0-2.827c0.781-0.781,2.047-0.781,2.828,0l6.672,6.672l6.675-6.673
			c0.78-0.781,2.047-0.781,2.827,0c0.781,0.778,0.781,2.047,0,2.828l-6.672,6.673l6.672,6.672c0.781,0.78,0.781,2.047,0,2.828
			c-0.78,0.778-2.047,0.779-2.827,0l-6.673-6.673l-6.674,6.674C38.978,331.227,38.466,331.422,37.955,331.422z"/>
	</g>
</g>
<g opacity="0.5" enable-background="new    ">
	<g>
		<path fill="#FFFFFF" d="M313.096,269.084l-4.106,22.501 M299.791,278.279l22.502,4.108"/>
	</g>
	<g>
		<path fill="#E1782B" d="M298.146,279.418c-0.291-0.423-0.422-0.953-0.322-1.497c0.197-1.087,1.238-1.808,2.326-1.607l9.283,1.695
			l1.692-9.283c0.199-1.087,1.24-1.807,2.327-1.608c1.087,0.199,1.807,1.24,1.605,2.327l-1.692,9.282l9.282,1.696
			c1.086,0.195,1.809,1.237,1.607,2.325c-0.197,1.087-1.238,1.807-2.326,1.606l-9.283-1.694l-1.692,9.282
			c-0.199,1.087-1.24,1.809-2.327,1.608c-1.085-0.198-1.809-1.24-1.605-2.326l1.692-9.283l-9.282-1.693
			C298.889,280.149,298.438,279.839,298.146,279.418z"/>
	</g>
</g>
<g opacity="0.1" enable-background="new    ">
	<circle fill="#727272" cx="84.128" cy="56.248" r="31"/>
</g>
<g>
	<g>
		<g>
			<path fill="#727272" d="M209.378,269.248c-2.25,0-6.009,0-6.009,0v28.563c0,1.826-1.689,3.438-3.766,3.438H90.423
				c-2.076,0-4.294-1.609-4.294-3.438v-97.153c0-1.822,2.062-3.409,4.294-3.409h109.183c2.074,0,3.766,1.585,3.766,3.409v23.591
				c0.759,0,3.509,0,3.509,0s2.7-0.015,4.021,0v-23.591c0-5.479-5.065-10.409-11.295-10.409H90.423
				c-6.228,0-11.294,4.932-11.294,10.409v97.152c0,5.479,5.067,10.438,11.294,10.438h109.183c6.229,0,11.293-4.956,11.293-10.438
				v-28.562C210.898,269.248,209.906,269.248,209.378,269.248z"/>
		</g>
	</g>
	<g>
		<g>
			<g>
				<g>
					<path fill="#FFFFFF" d="M145.016,225.892c-6.657,0-12.056,5.396-12.056,12.052c0,3.893,1.849,7.339,4.707,9.544v15.325
						c0,3.684,2.986,6.668,6.669,6.668s6.668-2.984,6.668-6.668v-14.416c3.619-2.082,6.063-5.978,6.063-10.453
						C157.069,231.289,151.673,225.892,145.016,225.892z"/>
				</g>
			</g>
			<g>
				<g>
					<path fill="#727272" d="M144.336,273.248c-5.752,0-10.434-4.682-10.434-10.436v-13.621c-3.012-2.961-4.708-6.967-4.708-11.247
						c0-8.723,7.097-15.815,15.821-15.815c4.226,0,8.199,1.645,11.187,4.633c2.985,2.989,4.631,6.96,4.63,11.186
						c0,4.875-2.277,9.464-6.063,12.44v12.429C154.77,268.568,150.089,273.248,144.336,273.248z M145.016,229.655
						c-4.573,0-8.291,3.721-8.291,8.287c0,2.581,1.183,4.975,3.243,6.563c0.923,0.712,1.465,1.813,1.465,2.979v15.325
						c0,1.601,1.303,2.903,2.904,2.903s2.903-1.305,2.903-2.903v-14.416c0-1.347,0.72-2.591,1.889-3.263
						c2.576-1.482,4.174-4.236,4.174-7.19c0-2.213-0.863-4.294-2.427-5.859C149.31,230.517,147.229,229.655,145.016,229.655z"/>
				</g>
			</g>
		</g>
	</g>
</g>
<g>
	<path fill="#727272" d="M201.128,265.248h-20v-18h-8.771v-18h66.295c20.664,0,37.476-15.57,37.476-34.709
		c0-18.995-16.461-33.875-37.476-33.875h-52.631v-6h52.631c24.379,0,43.476,17.516,43.476,39.875
		c0,22.445-19.503,40.709-43.476,40.709h-60.295v6h8.771v18h8v-7h10v-11h33.524c27.281,0,49.476-20.953,49.476-46.709
		c0-25.726-21.731-45.875-49.476-45.875h-52.639v-6h52.639c31.105,0,55.476,22.785,55.476,51.875
		c0,29.063-24.887,52.709-55.476,52.709h-27.524v11h-10V265.248L201.128,265.248z M174.343,160.664h-58.739v-6h58.739V160.664z
		 M115.604,160.664c-30.589,0-55.476-23.646-55.476-52.709c0-29.063,24.887-52.707,55.476-52.707h112.524v6H115.604
		c-27.281,0-49.476,20.951-49.476,46.707s22.195,46.709,49.476,46.709V160.664L115.604,160.664z M174.313,148.664h-58.709
		c-23.973,0-43.476-18.264-43.476-40.709s19.503-40.707,43.476-40.707h112.524v6H115.604c-20.664,0-37.476,15.568-37.476,34.707
		s16.812,34.709,37.476,34.709h58.709V148.664L174.313,148.664z"/>
</g>
<g>
	<path fill="#727272" d="M240.427,74.546c-5.127,0-9.299-4.172-9.299-9.302c0-5.127,4.172-9.299,9.299-9.299
		c5.13,0,9.302,4.172,9.302,9.299C249.729,70.374,245.557,74.546,240.427,74.546z M240.427,61.946c-1.819,0-3.299,1.479-3.299,3.299
		c0,1.82,1.479,3.302,3.299,3.302c1.82,0,3.302-1.48,3.302-3.302C243.729,63.426,242.248,61.946,240.427,61.946z"/>
</g>
<g>
	<path fill="#727272" d="M238.163,101.6c-8.841,0-16.034-7.193-16.034-16.034V71.248h6v14.315c0,5.533,4.501,10.034,10.034,10.034
		c5.532,0,10.035-4.501,10.035-10.034v-9.392l3.915,1.254c1.266,0.406,2.58,0.609,3.91,0.609c7.054,0,12.791-5.736,12.791-12.791
		c0-7.054-5.737-12.793-12.791-12.793c-1.33,0-2.646,0.205-3.91,0.611l-3.916,1.254v-9.391c0-5.533-4.502-10.034-10.034-10.034
		c-5.533,0-10.034,4.501-10.034,10.034v13.322h-6V44.93c0-8.841,7.193-16.034,16.034-16.034c8.842,0,16.034,7.193,16.034,16.034
		v1.614c0.604-0.062,1.216-0.089,1.826-0.089c10.36,0,18.791,8.431,18.791,18.793c0,10.359-8.431,18.791-18.791,18.791
		c-0.61,0-1.222-0.029-1.826-0.091v1.615C254.198,94.405,247.004,101.6,238.163,101.6z"/>
</g>
<g>
	<polygon fill="#727272" points="118.14,195.248 100.462,195.248 100.462,156.321 106.462,156.321 106.462,189.248 112.14,189.248 
		112.14,158.748 118.14,158.748 	"/>
</g>
<g>
	<path fill="#727272" d="M189.021,175.248h-17.679v-28.304c0-14.668-11.933-26.602-26.601-26.602
		c-13.835,0-25.223,10.373-26.488,24.129l-5.975-0.549c1.552-16.863,15.508-29.58,32.463-29.58
		c17.976,0,32.601,14.625,32.601,32.602v22.304h5.678v-23.146c0-21.107-17.172-38.279-38.279-38.279
		c-19.721,0-36.092,14.772-38.082,34.361l-5.97-0.605c2.302-22.663,21.24-39.756,44.051-39.756
		c24.416,0,44.278,19.863,44.278,44.279L189.021,175.248L189.021,175.248z"/>
</g>
</svg>
